<svg id="svg" version="1.1" xmlns="http://www.w3.org/2000/svg" xmlns:xlink="http://www.w3.org/1999/xlink" width="400" height="400" viewBox="0, 0, 400,400"><g id="svgg"><path id="path0" d="M220.160 56.982 C 196.747 58.928,176.740 76.697,171.839 99.896 C 171.006 103.840,170.415 111.160,170.739 113.509 L 170.995 115.360 171.242 113.325 C 173.444 95.189,186.982 77.986,204.640 70.885 C 236.424 58.104,271.824 77.619,278.248 111.464 L 278.988 115.360 279.013 111.200 C 279.185 82.868,257.714 59.461,229.280 56.981 C 225.064 56.614,224.593 56.614,220.160 56.982 M225.332 107.280 C 225.143 108.028,222.030 118.542,218.414 130.644 C 210.807 156.106,211.644 152.842,212.654 153.095 C 223.041 155.702,233.400 150.560,236.663 141.179 C 238.882 134.797,238.548 116.296,236.086 109.231 C 235.767 108.317,235.551 108.188,233.787 107.855 C 232.716 107.653,230.589 107.135,229.060 106.704 C 225.538 105.711,225.737 105.680,225.332 107.280 M99.360 122.609 C 98.592 123.028,76.907 144.456,76.093 145.600 C 75.448 146.507,75.331 148.788,75.874 149.861 C 76.377 150.856,97.902 172.428,98.944 172.981 C 102.208 174.715,106.249 171.481,105.261 167.926 C 105.049 167.163,102.412 164.323,95.528 157.445 L 86.085 148.009 95.494 138.565 C 105.526 128.495,105.917 127.981,105.267 125.715 C 104.485 122.987,101.522 121.429,99.360 122.609 M319.686 122.800 C 317.581 123.858,316.524 126.544,317.474 128.421 C 317.668 128.805,322.023 133.332,327.152 138.480 L 336.476 147.840 327.133 157.200 C 321.994 162.348,317.639 166.965,317.455 167.461 C 316.270 170.648,318.600 173.687,321.981 173.362 L 323.601 173.206 335.220 161.563 C 342.912 153.855,346.912 149.622,347.055 149.038 C 347.651 146.599,347.581 146.511,335.577 134.446 C 322.879 121.685,322.484 121.395,319.686 122.800 M218.677 189.788 C 214.213 191.082,213.773 191.926,205.463 215.103 L 198.287 235.121 191.585 237.473 C 187.899 238.767,184.692 239.973,184.459 240.153 C 184.224 240.335,182.751 246.244,181.148 253.440 C 179.560 260.568,176.023 276.251,173.288 288.292 C 170.554 300.332,168.353 310.218,168.398 310.260 C 168.544 310.398,212.627 341.616,213.007 341.851 C 213.315 342.041,222.720 328.259,222.720 327.618 C 222.720 327.521,222.180 327.353,221.520 327.246 C 219.663 326.942,216.605 325.327,215.296 323.958 C 213.099 321.662,213.120 321.825,213.120 307.212 L 213.120 294.084 215.525 289.682 C 221.077 279.522,221.922 273.796,220.670 254.822 C 220.390 250.566,220.160 243.964,220.160 240.150 L 220.160 233.215 225.635 216.528 C 230.588 201.433,231.094 199.684,230.943 198.204 C 230.318 192.106,224.486 188.105,218.677 189.788 M128.375 210.991 L 126.351 212.636 126.564 214.058 C 127.196 218.274,131.778 227.344,134.382 229.536 C 137.910 232.504,145.283 232.935,147.470 230.300 C 147.775 229.933,137.657 217.376,132.119 211.248 L 130.400 209.346 128.375 210.991 M238.080 231.262 L 238.080 239.591 237.160 241.636 C 234.427 247.711,234.336 253.379,236.902 257.641 L 237.978 259.429 236.278 262.914 C 232.942 269.756,232.749 274.721,235.495 283.125 L 236.445 286.032 235.854 287.256 C 234.430 290.205,234.196 296.635,235.328 301.735 L 235.783 303.789 234.684 305.415 C 232.762 308.256,231.158 314.845,231.420 318.825 L 231.520 320.355 242.742 314.777 L 253.964 309.199 254.358 304.322 C 254.575 301.640,254.703 299.396,254.642 299.336 C 254.491 299.185,245.429 304.496,242.880 306.230 C 240.179 308.068,237.606 310.506,237.113 311.696 C 236.898 312.215,236.587 312.640,236.422 312.640 C 236.257 312.640,236.225 312.474,236.351 312.271 C 236.496 312.034,236.438 311.988,236.188 312.143 C 235.973 312.275,235.876 312.462,235.971 312.558 C 236.067 312.654,235.706 313.232,235.170 313.843 C 234.035 315.136,233.391 316.488,233.130 318.125 C 232.998 318.951,232.748 319.341,232.270 319.466 C 230.423 319.949,232.931 308.123,235.312 305.120 C 235.816 304.485,235.820 304.485,235.830 305.181 C 235.835 305.567,235.999 305.981,236.194 306.101 C 236.439 306.253,236.472 306.085,236.299 305.560 C 236.162 305.142,236.068 304.524,236.089 304.186 C 236.111 303.848,235.923 302.595,235.672 301.400 C 234.559 296.110,234.759 290.624,236.183 287.397 L 236.802 285.993 235.874 283.077 C 233.121 274.420,233.321 269.731,236.740 262.796 L 238.201 259.832 239.275 260.872 C 240.172 261.742,240.399 261.834,240.660 261.436 C 240.831 261.174,241.269 260.491,241.633 259.918 C 241.997 259.345,242.416 258.951,242.565 259.043 C 242.714 259.135,242.940 259.042,243.067 258.836 C 243.212 258.602,243.160 258.547,242.929 258.689 C 242.260 259.103,242.539 258.503,244.349 255.634 C 245.333 254.074,246.259 252.873,246.407 252.964 C 246.555 253.056,246.780 252.962,246.907 252.756 C 247.060 252.508,246.999 252.467,246.728 252.635 C 246.452 252.805,246.370 252.743,246.478 252.445 C 246.567 252.200,246.813 252.040,247.024 252.088 C 247.235 252.136,247.311 252.020,247.194 251.830 C 247.076 251.639,247.768 250.232,248.731 248.702 C 253.442 241.215,253.537 241.023,252.898 240.218 C 250.772 237.539,247.511 233.920,247.223 233.920 C 246.442 233.921,241.142 237.296,239.668 238.732 C 238.794 239.583,238.208 240.036,238.366 239.740 C 238.665 239.178,238.558 223.412,238.254 223.107 C 238.158 223.011,238.080 226.681,238.080 231.262 M250.541 256.397 C 243.208 265.805,239.925 271.236,239.551 274.578 C 239.461 275.381,239.023 276.821,238.577 277.778 C 237.673 279.721,237.565 281.449,238.182 284.092 L 238.578 285.784 239.498 284.823 C 240.004 284.295,240.518 283.925,240.640 284.000 C 240.762 284.075,241.280 283.674,241.791 283.109 L 242.720 282.080 241.680 283.020 C 241.108 283.537,240.640 283.816,240.640 283.640 C 240.640 283.225,242.394 281.541,242.606 281.752 C 242.694 281.841,243.188 281.447,243.703 280.878 C 244.610 279.875,244.612 279.867,243.760 280.617 C 243.276 281.043,242.880 281.251,242.880 281.079 C 242.880 280.660,244.956 278.663,245.170 278.876 C 245.262 278.969,245.612 278.719,245.949 278.322 L 246.560 277.600 245.793 278.240 C 245.372 278.592,245.084 278.722,245.153 278.529 C 245.313 278.086,253.888 268.190,254.010 268.307 C 254.060 268.355,254.439 269.793,254.852 271.503 L 255.604 274.611 252.229 278.346 C 244.698 286.681,241.150 291.718,240.470 295.040 C 240.272 296.008,239.953 296.800,239.761 296.800 C 239.570 296.800,239.293 296.931,239.147 297.091 C 238.992 297.261,239.048 297.286,239.280 297.152 C 239.825 296.839,239.797 296.965,238.883 298.928 C 238.041 300.737,237.899 302.373,238.399 304.480 C 238.649 305.530,238.601 305.900,238.132 306.540 C 237.411 307.524,236.800 307.741,236.800 307.013 C 236.800 306.705,236.715 306.538,236.611 306.643 C 236.507 306.747,236.522 307.147,236.644 307.532 C 236.840 308.150,237.910 307.191,245.809 299.316 C 250.728 294.412,254.833 290.328,254.932 290.240 C 255.031 290.152,255.028 290.800,254.925 291.680 C 254.565 294.739,254.389 299.382,254.721 297.019 C 254.878 295.908,255.074 293.836,255.157 292.415 L 255.308 289.831 257.100 288.020 L 258.893 286.208 257.589 280.784 C 256.872 277.801,256.092 274.784,255.855 274.080 C 255.618 273.376,255.171 271.622,254.862 270.182 L 254.301 267.565 255.805 265.891 C 256.632 264.971,257.240 264.038,257.156 263.818 C 257.038 263.512,254.039 253.961,253.670 252.717 C 253.631 252.584,252.222 254.240,250.541 256.397 M237.360 286.747 C 236.756 287.408,236.660 287.686,237.040 287.670 C 237.172 287.664,237.539 287.304,237.855 286.870 C 238.529 285.944,238.173 285.856,237.360 286.747 M145.044 304.550 C 145.531 304.623,146.251 304.621,146.644 304.545 C 147.038 304.469,146.640 304.409,145.760 304.412 C 144.880 304.414,144.558 304.476,145.044 304.550 M276.244 304.550 C 276.731 304.623,277.451 304.621,277.844 304.545 C 278.238 304.469,277.840 304.409,276.960 304.412 C 276.080 304.414,275.758 304.476,276.244 304.550 M116.800 319.360 C 116.451 319.585,116.435 319.672,116.739 319.675 C 116.988 319.678,117.061 319.842,116.917 320.080 C 116.752 320.355,116.845 320.344,117.215 320.044 C 117.995 319.411,117.636 318.820,116.800 319.360 M112.960 321.458 C 111.464 322.252,109.628 323.191,108.880 323.546 C 108.132 323.900,107.520 324.327,107.520 324.495 C 107.520 324.909,107.714 324.881,108.816 324.312 C 109.335 324.043,109.760 323.905,109.760 324.004 C 109.760 324.104,110.075 323.891,110.460 323.532 C 110.846 323.174,111.422 322.880,111.740 322.880 C 112.059 322.880,112.320 322.736,112.320 322.560 C 112.320 322.384,112.688 322.240,113.139 322.240 C 113.589 322.240,113.873 322.378,113.769 322.546 C 113.665 322.714,113.332 322.773,113.030 322.676 C 112.574 322.530,112.561 322.557,112.949 322.832 C 113.636 323.317,114.392 322.649,113.870 322.019 C 113.572 321.660,113.588 321.585,113.946 321.662 C 114.196 321.716,114.366 321.585,114.324 321.372 C 114.280 321.148,114.449 321.060,114.722 321.165 C 114.983 321.265,115.098 321.512,114.977 321.714 C 114.856 321.915,115.004 321.879,115.306 321.634 C 115.608 321.389,115.781 321.115,115.691 321.024 C 115.600 320.933,115.686 320.666,115.882 320.429 C 116.478 319.711,115.803 319.948,112.960 321.458 M112.072 323.576 C 112.120 323.809,111.958 323.957,111.712 323.904 C 111.119 323.777,109.062 325.787,109.259 326.301 C 109.344 326.522,109.167 326.847,108.867 327.022 C 108.566 327.197,108.471 327.345,108.656 327.350 C 109.175 327.365,109.727 326.688,109.557 326.244 C 109.385 325.795,111.275 324.069,111.671 324.314 C 111.812 324.402,112.095 324.271,112.299 324.025 C 112.560 323.710,112.569 323.514,112.328 323.365 C 112.139 323.248,112.024 323.343,112.072 323.576 M106.211 325.112 L 105.440 325.770 106.400 325.560 C 107.596 325.298,107.720 325.192,107.310 324.782 C 107.087 324.559,106.737 324.664,106.211 325.112 M103.200 326.648 C 102.320 327.128,101.552 327.628,101.493 327.760 C 101.435 327.892,101.111 328.000,100.773 328.000 C 100.436 328.000,99.872 328.288,99.520 328.640 C 99.168 328.992,98.740 329.280,98.569 329.280 C 98.043 329.280,95.360 330.671,95.360 330.944 C 95.360 331.085,95.144 331.200,94.880 331.200 C 94.616 331.200,94.400 331.344,94.400 331.520 C 94.400 331.696,94.688 331.840,95.040 331.840 C 95.392 331.840,95.680 331.712,95.680 331.555 C 95.680 331.398,96.030 331.182,96.458 331.074 C 96.885 330.967,97.431 330.699,97.670 330.480 C 98.350 329.855,99.464 329.280,99.996 329.280 C 100.262 329.280,100.480 329.136,100.480 328.960 C 100.480 328.784,100.684 328.640,100.933 328.640 C 101.183 328.640,101.437 328.490,101.498 328.306 C 101.559 328.122,101.931 327.947,102.325 327.918 C 102.718 327.888,103.116 327.623,103.210 327.329 C 103.303 327.035,103.555 326.800,103.770 326.808 C 104.835 326.844,105.280 326.677,105.280 326.240 C 105.280 325.591,105.059 325.635,103.200 326.648 M92.660 332.458 C 92.352 332.799,91.916 333.006,91.691 332.920 C 91.466 332.834,91.084 332.958,90.841 333.195 C 90.599 333.433,89.932 333.818,89.360 334.052 C 88.788 334.286,88.320 334.604,88.320 334.759 C 88.320 334.913,88.112 335.040,87.858 335.040 C 87.147 335.040,85.098 336.346,85.299 336.671 C 85.579 337.124,86.026 337.014,86.720 336.320 C 87.072 335.968,87.685 335.680,88.083 335.680 C 88.481 335.680,88.986 335.392,89.206 335.040 C 89.426 334.688,89.803 334.400,90.044 334.400 C 90.284 334.400,90.654 334.193,90.864 333.939 C 91.075 333.685,91.452 333.557,91.703 333.653 C 91.955 333.750,92.160 333.678,92.160 333.495 C 92.160 333.312,92.656 332.982,93.263 332.763 C 93.870 332.543,94.293 332.246,94.204 332.102 C 93.928 331.655,93.244 331.812,92.660 332.458 M83.600 337.032 C 83.204 337.222,82.880 337.572,82.880 337.809 C 82.880 338.373,83.343 338.359,83.824 337.779 C 84.035 337.525,84.432 337.404,84.707 337.510 C 85.036 337.636,85.158 337.554,85.064 337.271 C 84.869 336.687,84.457 336.620,83.600 337.032 M81.396 338.400 C 81.294 338.664,80.939 338.880,80.606 338.880 C 80.273 338.880,79.712 339.168,79.360 339.520 C 79.008 339.872,78.616 340.149,78.488 340.136 C 78.360 340.123,78.204 340.267,78.141 340.456 C 77.930 341.090,79.059 340.808,79.917 340.013 C 80.384 339.580,81.170 339.058,81.663 338.854 C 82.632 338.453,82.864 337.920,82.070 337.920 C 81.800 337.920,81.497 338.136,81.396 338.400 M75.760 341.341 C 75.183 341.491,74.971 342.080,75.494 342.080 C 76.048 342.080,76.800 341.692,76.800 341.406 C 76.800 341.107,76.682 341.100,75.760 341.341 M73.115 342.760 C 72.414 343.134,71.734 343.602,71.605 343.800 C 71.476 343.998,71.368 344.048,71.365 343.912 C 71.359 343.588,69.549 344.524,69.253 345.004 C 68.995 345.421,70.749 345.092,71.037 344.670 C 71.240 344.371,73.274 343.360,73.672 343.360 C 73.994 343.360,74.880 342.555,74.880 342.263 C 74.880 341.936,74.414 342.067,73.115 342.760 M67.293 345.855 C 66.484 346.287,66.336 346.505,66.597 346.882 C 66.847 347.242,66.969 347.261,67.091 346.960 C 67.180 346.740,67.529 346.560,67.867 346.560 C 68.204 346.560,68.480 346.416,68.480 346.240 C 68.480 346.064,68.804 345.918,69.200 345.915 C 69.782 345.911,69.828 345.851,69.440 345.600 C 68.790 345.180,68.491 345.215,67.293 345.855 M63.680 347.739 C 62.888 348.209,62.168 348.675,62.080 348.776 C 61.992 348.877,61.715 349.004,61.465 349.058 C 60.172 349.338,55.861 352.320,56.751 352.320 C 57.115 352.320,58.880 351.268,58.880 351.051 C 58.880 350.819,59.746 350.494,60.640 350.391 C 60.816 350.371,61.077 350.146,61.220 349.891 C 61.362 349.635,61.598 349.500,61.743 349.590 C 61.889 349.680,62.184 349.540,62.400 349.280 C 62.616 349.020,62.920 348.886,63.076 348.982 C 63.232 349.079,63.360 349.005,63.360 348.819 C 63.360 348.632,63.633 348.480,63.966 348.480 C 64.299 348.480,64.653 348.266,64.754 348.005 C 64.866 347.711,65.143 347.610,65.480 347.740 C 65.829 347.874,65.948 347.824,65.811 347.602 C 65.693 347.411,65.777 347.182,65.998 347.093 C 66.219 347.003,66.112 346.921,65.760 346.908 C 65.408 346.896,64.472 347.270,63.680 347.739 M108.302 350.776 C 108.168 351.009,108.172 351.096,108.313 350.969 C 108.454 350.842,108.992 351.094,109.509 351.529 C 110.026 351.964,110.618 352.316,110.825 352.310 C 111.031 352.305,110.912 352.141,110.560 351.947 C 110.208 351.752,109.611 351.313,109.234 350.972 C 108.691 350.482,108.496 350.441,108.302 350.776 M54.926 352.480 C 54.662 352.744,54.291 352.960,54.103 352.960 C 53.914 352.960,53.760 353.104,53.760 353.280 C 53.760 353.456,54.048 353.600,54.400 353.600 C 54.752 353.600,55.040 353.456,55.040 353.280 C 55.040 353.104,55.256 352.960,55.520 352.960 C 55.784 352.960,56.000 352.744,56.000 352.480 C 56.000 352.216,55.866 352.000,55.703 352.000 C 55.539 352.000,55.190 352.216,54.926 352.480 M113.280 353.272 C 113.280 353.451,113.722 353.500,114.320 353.386 C 115.778 353.108,115.825 352.960,114.453 352.960 C 113.808 352.960,113.280 353.100,113.280 353.272 M51.802 354.201 C 51.381 354.532,50.751 354.858,50.402 354.925 C 50.053 354.992,49.716 355.334,49.653 355.684 C 49.560 356.198,49.617 356.243,49.953 355.920 C 50.181 355.700,50.555 355.520,50.784 355.520 C 51.013 355.520,51.488 355.232,51.840 354.880 C 52.192 354.528,52.696 354.240,52.960 354.240 C 53.224 354.240,53.440 354.096,53.440 353.920 C 53.440 353.410,52.632 353.548,51.802 354.201 M307.360 354.240 C 306.781 354.879,307.019 355.052,307.974 354.686 C 308.497 354.485,308.689 353.600,308.210 353.600 C 308.061 353.600,307.679 353.888,307.360 354.240 M210.700 354.320 C 210.788 354.628,210.692 354.880,210.486 354.880 C 210.203 354.880,210.204 354.972,210.491 355.259 C 211.062 355.830,211.353 355.305,210.920 354.483 C 210.711 354.085,210.612 354.012,210.700 354.320 M304.000 357.138 C 303.032 358.176,302.060 359.028,301.840 359.032 C 301.620 359.037,301.440 359.256,301.440 359.520 C 301.440 359.784,301.322 360.000,301.178 360.000 C 300.666 360.000,296.640 363.765,296.640 364.243 C 296.640 364.394,296.514 364.440,296.361 364.345 C 296.207 364.250,295.633 364.602,295.084 365.126 C 294.535 365.651,293.941 366.080,293.763 366.080 C 293.585 366.080,293.440 366.224,293.440 366.400 C 293.440 366.576,293.200 366.720,292.907 366.720 C 292.613 366.720,292.463 366.810,292.572 366.919 C 292.682 367.029,291.890 367.965,290.813 368.999 C 289.736 370.034,289.071 370.880,289.335 370.880 C 289.599 370.880,290.457 370.268,291.241 369.520 C 292.026 368.772,293.346 367.535,294.174 366.771 C 295.002 366.007,295.680 365.251,295.680 365.091 C 295.680 364.931,295.896 364.800,296.161 364.800 C 296.598 364.800,297.514 364.020,301.609 360.160 C 302.356 359.456,303.324 358.592,303.761 358.240 C 305.248 357.042,306.880 355.540,306.880 355.370 C 306.880 354.695,305.475 355.558,304.000 357.138 M210.052 355.760 C 210.176 355.980,210.117 356.160,209.920 356.160 C 209.723 356.160,209.659 356.317,209.777 356.508 C 209.932 356.758,210.090 356.758,210.340 356.508 C 210.591 356.257,210.567 356.048,210.257 355.760 C 209.912 355.440,209.871 355.440,210.052 355.760 M47.760 356.347 C 47.188 356.597,46.720 356.929,46.720 357.085 C 46.720 357.241,46.483 357.349,46.194 357.324 C 45.905 357.300,45.608 357.452,45.534 357.662 C 45.455 357.886,45.671 358.023,46.059 357.994 C 46.423 357.966,46.720 357.848,46.720 357.731 C 46.720 357.614,47.152 357.339,47.680 357.120 C 48.208 356.901,48.640 356.587,48.640 356.422 C 48.640 356.257,48.784 356.211,48.960 356.320 C 49.136 356.429,49.280 356.365,49.280 356.179 C 49.280 355.754,49.059 355.779,47.760 356.347 M135.555 357.167 C 135.066 357.865,135.153 358.565,135.688 358.235 C 135.844 358.138,135.882 357.824,135.772 357.537 C 135.643 357.203,135.698 357.093,135.924 357.233 C 136.117 357.352,136.360 357.314,136.463 357.147 C 136.867 356.493,136.014 356.512,135.555 357.167 M209.003 357.632 C 208.740 358.211,208.731 358.600,208.972 358.982 C 209.254 359.430,209.278 359.399,209.114 358.800 C 208.970 358.276,209.053 358.080,209.418 358.080 C 209.694 358.080,209.920 357.872,209.920 357.619 C 209.920 356.793,209.382 356.801,209.003 357.632 M44.426 358.175 C 44.048 358.548,43.339 358.907,42.637 359.081 C 42.506 359.113,41.824 359.485,41.120 359.906 C 40.416 360.328,39.444 360.841,38.960 361.047 C 38.476 361.252,38.080 361.533,38.080 361.670 C 38.080 361.808,37.810 361.920,37.479 361.920 C 36.880 361.920,35.935 362.762,36.218 363.044 C 36.420 363.247,38.074 362.460,38.078 362.160 C 38.079 362.028,38.440 361.920,38.880 361.920 C 39.320 361.920,39.680 361.776,39.680 361.600 C 39.680 361.424,39.968 361.280,40.320 361.280 C 40.672 361.280,40.960 361.136,40.960 360.960 C 40.960 360.784,41.176 360.640,41.440 360.640 C 41.704 360.640,41.920 360.496,41.920 360.320 C 41.920 360.144,42.248 360.000,42.649 360.000 C 43.051 360.000,43.586 359.712,43.840 359.360 C 44.094 359.008,44.557 358.720,44.871 358.720 C 45.184 358.720,45.440 358.584,45.440 358.419 C 45.440 357.882,44.863 357.743,44.426 358.175 M134.190 359.121 C 134.090 359.283,134.167 359.548,134.361 359.711 C 134.556 359.873,134.646 359.910,134.562 359.794 C 134.479 359.678,134.643 359.413,134.927 359.205 C 135.401 358.859,135.399 358.827,134.908 358.827 C 134.613 358.827,134.290 358.959,134.190 359.121 M33.903 363.778 C 33.120 364.272,32.204 364.781,31.866 364.909 C 31.438 365.071,31.354 365.242,31.589 365.477 C 31.936 365.824,33.280 365.224,33.280 364.723 C 33.280 364.589,33.478 364.480,33.721 364.480 C 33.963 364.480,34.334 364.273,34.544 364.019 C 34.755 363.765,35.132 363.637,35.383 363.733 C 35.662 363.840,35.840 363.708,35.840 363.394 C 35.840 362.684,35.543 362.743,33.903 363.778 M131.065 364.080 C 130.842 364.782,130.834 365.120,131.040 365.120 C 131.128 365.120,131.187 365.025,131.171 364.909 C 131.156 364.793,131.375 364.568,131.658 364.409 C 131.942 364.250,132.090 363.986,131.988 363.820 C 131.695 363.346,131.259 363.469,131.065 364.080 M206.209 364.111 C 206.335 364.314,206.277 364.480,206.080 364.480 C 205.883 364.480,205.811 364.624,205.920 364.800 C 206.029 364.976,206.253 365.120,206.419 365.120 C 206.845 365.120,206.793 364.243,206.351 363.969 C 206.122 363.828,206.068 363.882,206.209 364.111 M205.013 366.265 C 204.359 367.635,204.358 367.680,204.982 367.680 C 205.338 367.680,205.424 367.494,205.280 367.040 C 205.136 366.586,205.222 366.400,205.578 366.400 C 205.854 366.400,206.080 366.192,206.080 365.939 C 206.080 365.009,205.531 365.177,205.013 366.265 M30.320 365.680 C 30.012 365.750,29.760 365.940,29.760 366.103 C 29.760 366.267,29.544 366.400,29.280 366.400 C 29.016 366.400,28.800 366.544,28.800 366.720 C 28.800 366.896,29.088 367.040,29.440 367.040 C 29.792 367.040,30.080 366.896,30.080 366.720 C 30.080 366.544,30.288 366.400,30.541 366.400 C 31.066 366.400,31.496 365.869,31.125 365.678 C 30.990 365.609,30.628 365.610,30.320 365.680 M130.009 365.840 C 129.384 366.648,129.318 366.933,129.756 366.933 C 130.003 366.933,130.195 366.849,130.184 366.747 C 130.113 366.087,130.291 365.754,130.609 365.951 C 130.838 366.092,130.892 366.038,130.751 365.809 C 130.463 365.344,130.390 365.348,130.009 365.840 M27.840 367.040 C 27.840 367.216,27.567 367.360,27.234 367.360 C 26.901 367.360,26.546 367.576,26.444 367.840 C 26.343 368.104,25.978 368.320,25.633 368.320 C 25.288 368.320,24.754 368.572,24.446 368.880 C 24.138 369.188,23.838 369.401,23.780 369.354 C 23.518 369.141,21.759 370.300,21.928 370.574 C 22.219 371.044,22.658 370.942,23.360 370.240 C 23.712 369.888,24.216 369.600,24.480 369.600 C 24.744 369.600,24.960 369.456,24.960 369.280 C 24.960 369.104,25.248 368.960,25.600 368.960 C 25.952 368.960,26.240 368.843,26.240 368.699 C 26.240 368.556,26.744 368.198,27.360 367.904 C 28.411 367.403,28.873 366.720,28.160 366.720 C 27.984 366.720,27.840 366.864,27.840 367.040 M20.160 371.200 C 20.160 371.376,19.872 371.520,19.520 371.520 C 19.168 371.520,18.592 371.808,18.240 372.160 C 17.888 372.512,17.600 372.730,17.600 372.645 C 17.600 372.326,14.977 373.872,14.818 374.285 C 14.727 374.522,14.527 374.638,14.373 374.543 C 14.219 374.448,13.802 374.526,13.447 374.716 C 12.648 375.144,12.572 375.843,13.360 375.516 C 13.668 375.388,14.100 375.277,14.320 375.269 C 14.540 375.260,14.720 375.151,14.720 375.025 C 14.720 374.900,15.188 374.611,15.760 374.383 C 16.332 374.155,17.058 373.706,17.372 373.384 C 17.687 373.063,18.227 372.800,18.572 372.800 C 18.918 372.800,19.200 372.656,19.200 372.480 C 19.200 372.304,19.416 372.160,19.680 372.160 C 19.944 372.160,20.160 372.016,20.160 371.840 C 20.160 371.664,20.376 371.520,20.640 371.520 C 20.904 371.520,21.120 371.376,21.120 371.200 C 21.120 371.024,20.904 370.880,20.640 370.880 C 20.376 370.880,20.160 371.024,20.160 371.200 M126.219 371.760 C 126.290 372.242,126.720 372.448,126.720 372.000 C 126.720 371.912,126.720 371.696,126.720 371.520 C 126.720 371.344,126.589 371.200,126.428 371.200 C 126.268 371.200,126.174 371.452,126.219 371.760 M286.080 373.138 C 285.112 374.176,284.140 375.028,283.920 375.032 C 283.700 375.037,283.520 375.256,283.520 375.520 C 283.520 375.784,283.402 376.000,283.258 376.000 C 282.746 376.000,278.720 379.765,278.720 380.243 C 278.720 380.394,278.594 380.440,278.441 380.345 C 278.287 380.250,277.713 380.602,277.164 381.126 C 276.615 381.651,276.021 382.080,275.843 382.080 C 275.665 382.080,275.520 382.224,275.520 382.400 C 275.520 382.576,275.280 382.720,274.987 382.720 C 274.693 382.720,274.543 382.810,274.652 382.919 C 274.762 383.029,273.970 383.965,272.893 384.999 C 271.816 386.034,271.151 386.880,271.415 386.880 C 271.679 386.880,272.537 386.268,273.321 385.520 C 274.106 384.772,275.426 383.535,276.254 382.771 C 277.082 382.007,277.760 381.251,277.760 381.091 C 277.760 380.931,277.976 380.800,278.241 380.800 C 278.678 380.800,279.594 380.020,283.689 376.160 C 284.436 375.456,285.404 374.592,285.841 374.240 C 287.328 373.042,288.960 371.540,288.960 371.370 C 288.960 370.695,287.555 371.558,286.080 373.138 M202.458 372.676 C 202.612 373.078,202.555 373.155,202.245 372.963 C 201.963 372.789,201.898 372.825,202.049 373.071 C 202.175 373.274,202.413 373.440,202.579 373.440 C 202.978 373.440,202.966 372.571,202.564 372.322 C 202.376 372.206,202.333 372.350,202.458 372.676 M125.529 372.880 C 124.846 373.763,124.804 374.023,125.358 373.936 C 125.695 373.883,125.879 373.625,125.819 373.292 C 125.751 372.922,125.848 372.817,126.108 372.977 C 126.358 373.132,126.416 373.086,126.271 372.849 C 125.983 372.384,125.910 372.388,125.529 372.880 M201.477 373.938 C 201.373 374.211,201.417 374.353,201.576 374.255 C 201.735 374.156,201.938 374.257,202.027 374.478 C 202.128 374.728,202.199 374.675,202.215 374.339 C 202.249 373.610,201.714 373.320,201.477 373.938 M200.826 375.248 C 200.715 375.536,200.700 375.847,200.792 375.939 C 200.885 376.031,200.962 375.903,200.965 375.653 C 200.969 375.280,201.025 375.285,201.280 375.680 C 201.547 376.094,201.591 376.085,201.595 375.619 C 201.602 374.868,201.070 374.611,200.826 375.248 M11.600 375.572 C 11.037 375.799,11.100 376.640,11.680 376.640 C 11.944 376.640,12.160 376.580,12.160 376.506 C 12.160 376.433,12.247 376.145,12.354 375.866 C 12.550 375.357,12.338 375.274,11.600 375.572 M123.068 376.843 C 122.980 377.072,123.082 377.359,123.294 377.481 C 123.506 377.603,123.574 377.586,123.445 377.443 C 123.316 377.300,123.443 377.013,123.727 376.805 C 124.195 376.463,124.196 376.427,123.736 376.427 C 123.456 376.427,123.156 376.614,123.068 376.843 M198.529 380.751 C 198.655 380.954,198.597 381.120,198.400 381.120 C 198.203 381.120,198.131 381.264,198.240 381.440 C 198.349 381.616,198.573 381.760,198.739 381.760 C 199.165 381.760,199.113 380.883,198.671 380.609 C 198.442 380.468,198.388 380.522,198.529 380.751 M196.986 383.568 C 196.875 383.856,196.860 384.167,196.952 384.259 C 197.045 384.351,197.122 384.223,197.125 383.973 C 197.129 383.600,197.185 383.605,197.440 384.000 C 197.707 384.414,197.751 384.405,197.755 383.939 C 197.762 383.188,197.230 382.931,196.986 383.568 M117.594 385.053 C 117.178 385.546,117.181 386.265,117.598 386.160 C 117.773 386.116,117.874 385.898,117.823 385.675 C 117.771 385.452,117.844 385.308,117.985 385.355 C 118.125 385.402,118.287 385.300,118.344 385.128 C 118.499 384.662,117.968 384.609,117.594 385.053 M116.490 387.181 C 116.308 387.522,116.283 387.878,116.435 387.972 C 116.851 388.229,117.101 387.842,116.884 387.276 C 116.746 386.919,116.813 386.850,117.115 387.037 C 117.397 387.211,117.462 387.175,117.311 386.929 C 116.998 386.424,116.875 386.461,116.490 387.181 M268.880 388.373 C 267.889 389.443,267.517 390.256,268.121 390.027 C 268.501 389.883,271.040 387.563,271.040 387.361 C 271.040 386.821,269.762 387.420,268.880 388.373 M194.778 389.316 C 194.921 389.688,194.868 389.791,194.614 389.634 C 194.408 389.506,194.240 389.555,194.240 389.741 C 194.240 389.928,194.456 390.080,194.720 390.080 C 195.256 390.080,195.375 389.266,194.884 388.962 C 194.696 388.846,194.653 388.990,194.778 389.316 " stroke="none" fill="#f3cba5" fill-rule="evenodd"></path><path id="path1" d="M48.320 139.520 L 48.320 253.760 114.691 253.760 L 181.063 253.760 181.696 250.960 C 182.045 249.420,182.734 246.379,183.227 244.202 L 184.125 240.244 185.422 239.700 C 186.136 239.400,189.322 238.248,192.502 237.139 L 198.284 235.124 203.361 221.002 C 206.153 213.235,209.492 204.000,210.781 200.480 L 213.124 194.080 213.146 190.309 L 213.168 186.539 212.144 185.373 C 210.977 184.044,210.240 182.468,210.240 181.303 C 210.240 180.630,210.027 180.452,208.880 180.171 C 156.966 167.427,138.071 102.503,175.035 63.878 C 217.995 18.987,294.026 48.138,295.591 110.099 C 296.386 141.564,277.394 168.744,247.674 178.674 L 243.360 180.115 243.147 181.577 C 242.794 183.996,240.881 186.392,238.800 187.024 L 238.080 187.243 238.080 205.083 L 238.080 222.923 244.676 230.581 C 248.304 234.794,251.773 238.846,252.384 239.587 L 253.495 240.934 252.317 242.844 L 251.138 244.754 252.538 249.177 L 253.939 253.600 314.010 253.681 L 374.080 253.762 374.080 139.521 L 374.080 25.280 211.200 25.280 L 48.320 25.280 48.320 139.520 M220.556 52.839 C 188.397 55.485,163.820 84.373,166.399 116.496 C 170.484 167.378,231.685 190.091,267.688 154.088 C 303.619 118.157,280.989 56.951,230.240 52.804 C 225.945 52.453,225.219 52.456,220.556 52.839 M229.280 56.981 C 257.714 59.461,279.185 82.868,279.013 111.200 L 278.988 115.360 278.248 111.464 C 271.824 77.619,236.424 58.104,204.640 70.885 C 186.982 77.986,173.444 95.189,171.242 113.325 L 170.995 115.360 170.739 113.509 C 170.415 111.160,171.006 103.840,171.839 99.896 C 176.740 76.697,196.747 58.928,220.160 56.982 C 224.593 56.614,225.064 56.614,229.280 56.981 M210.859 82.579 C 216.360 83.471,218.516 85.718,221.104 93.255 C 222.679 97.843,222.736 97.920,224.553 97.920 C 226.472 97.920,229.576 98.747,231.430 99.752 L 232.941 100.571 234.774 99.166 C 235.783 98.393,237.333 97.205,238.220 96.527 C 241.737 93.837,244.729 92.864,247.649 93.461 C 251.559 94.259,258.197 98.744,257.406 100.054 C 256.823 101.019,256.249 100.885,254.400 99.352 C 247.713 93.808,244.301 94.195,235.424 101.502 L 234.528 102.240 235.086 103.357 C 235.403 103.992,235.666 105.305,235.694 106.397 C 235.722 107.455,235.968 108.968,236.241 109.760 C 236.514 110.552,236.914 112.100,237.130 113.200 C 237.590 115.538,237.741 115.584,239.785 113.998 C 241.109 112.972,241.561 112.294,242.934 109.280 C 245.011 104.718,244.955 104.761,248.442 104.960 C 253.151 105.228,253.702 107.725,249.033 107.639 L 246.798 107.597 245.116 111.108 C 243.353 114.788,241.405 116.877,238.879 117.800 L 237.918 118.152 238.028 121.876 C 238.133 125.412,238.183 125.648,239.014 126.560 C 241.586 129.383,242.517 131.009,244.158 135.540 L 245.208 138.440 247.946 139.860 C 251.215 141.555,251.654 142.089,250.625 143.116 L 249.898 143.840 246.526 142.080 C 242.780 140.124,242.850 140.210,241.267 135.680 C 240.682 134.008,239.762 131.992,239.222 131.200 L 238.240 129.760 238.002 133.280 C 237.706 137.648,237.044 140.740,235.900 143.089 L 235.020 144.897 235.605 146.275 C 236.628 148.683,236.642 151.558,235.656 156.395 C 235.536 156.985,235.812 157.279,237.249 158.090 C 239.349 159.275,239.796 159.769,239.530 160.608 C 239.156 161.785,238.207 161.715,235.684 160.322 C 232.652 158.648,232.669 158.688,233.200 154.784 C 233.739 150.811,233.798 149.547,233.496 148.392 L 233.264 147.504 231.272 149.126 C 219.557 158.666,200.821 152.285,198.093 137.826 L 197.691 135.699 196.846 136.142 C 195.327 136.938,194.051 138.665,192.634 141.844 C 190.772 146.020,190.732 146.051,187.360 145.841 C 182.520 145.539,181.901 142.897,186.710 143.071 C 189.198 143.161,189.042 143.293,190.544 139.840 C 191.859 136.818,194.086 134.328,196.444 133.240 C 197.517 132.745,197.776 132.444,197.928 131.520 C 198.354 128.925,199.826 125.062,201.585 121.920 C 203.786 117.989,203.800 118.239,201.416 119.045 C 199.297 119.762,199.036 119.918,194.857 122.964 C 193.190 124.179,191.668 125.065,191.385 124.984 C 191.107 124.905,189.584 124.742,188.000 124.621 C 184.677 124.369,184.000 124.106,184.000 123.068 C 184.000 121.741,184.606 121.553,187.722 121.910 C 189.283 122.088,190.722 122.236,190.919 122.237 C 191.117 122.239,192.745 121.167,194.538 119.856 C 197.879 117.413,199.872 116.473,203.520 115.622 C 205.884 115.071,209.519 110.948,208.679 109.770 C 206.108 106.162,205.599 103.987,206.263 99.458 C 206.847 95.478,206.924 95.717,204.640 94.428 C 202.828 93.405,202.376 92.472,203.264 91.584 C 203.875 90.973,204.354 91.110,207.055 92.668 C 209.982 94.356,209.838 93.884,209.075 99.309 C 208.493 103.442,208.763 105.313,210.211 107.183 L 210.817 107.965 213.435 105.503 C 214.875 104.148,216.181 103.040,216.336 103.040 C 216.492 103.040,217.211 102.240,217.933 101.263 C 218.655 100.285,219.601 99.324,220.035 99.126 C 220.584 98.876,220.757 98.613,220.601 98.263 C 220.478 97.986,219.836 96.231,219.175 94.362 C 216.110 85.695,213.922 84.070,206.049 84.612 C 203.603 84.780,202.901 84.731,202.603 84.372 C 202.030 83.681,202.510 82.915,203.631 82.735 C 205.880 82.373,206.292 82.325,207.520 82.286 C 208.224 82.263,209.727 82.395,210.859 82.579 M102.936 122.768 C 104.829 123.666,105.790 125.824,105.227 127.914 C 104.965 128.889,103.101 130.929,95.494 138.565 L 86.085 148.009 95.528 157.445 C 102.412 164.323,105.049 167.163,105.261 167.926 C 106.249 171.481,102.208 174.715,98.944 172.981 C 97.902 172.428,76.377 150.856,75.874 149.861 C 74.433 147.013,74.449 146.992,87.691 133.879 C 100.649 121.048,100.121 121.432,102.936 122.768 M323.290 122.686 C 325.219 123.522,346.798 145.565,347.052 146.958 C 347.470 149.250,347.306 149.453,335.220 161.563 L 323.601 173.206 321.981 173.362 C 318.600 173.687,316.270 170.648,317.455 167.461 C 317.639 166.965,321.994 162.348,327.133 157.200 L 336.476 147.840 327.152 138.480 C 322.023 133.332,317.668 128.805,317.474 128.421 C 315.787 125.087,319.769 121.160,323.290 122.686 M136.800 192.800 C 136.800 192.976,135.907 193.552,134.816 194.080 C 131.052 195.901,130.316 197.212,130.861 201.127 C 131.047 202.468,131.200 203.684,131.200 203.827 C 131.200 203.970,131.596 204.164,132.080 204.258 C 132.564 204.351,134.148 204.851,135.600 205.368 L 138.240 206.308 138.240 205.151 C 138.240 204.314,137.849 203.410,136.828 201.888 L 135.415 199.783 136.386 198.291 C 136.919 197.471,137.559 196.800,137.808 196.800 C 138.594 196.800,138.672 197.772,137.962 198.731 L 137.279 199.656 138.559 201.638 C 139.641 203.311,139.840 203.881,139.840 205.306 L 139.840 206.992 141.620 207.956 C 143.262 208.846,143.534 208.898,145.142 208.636 C 146.368 208.437,147.571 208.484,149.202 208.796 L 151.520 209.239 152.988 208.300 C 154.310 207.454,155.200 207.129,155.200 207.494 C 155.200 207.567,155.281 207.839,155.381 208.098 C 155.505 208.422,154.956 208.936,153.626 209.744 L 151.692 210.919 149.238 210.462 C 145.602 209.785,145.261 210.036,147.625 211.653 C 148.711 212.396,150.085 213.640,150.678 214.417 C 151.503 215.498,152.084 215.912,153.159 216.185 C 153.959 216.388,155.240 217.114,156.140 217.872 L 157.718 219.203 158.849 218.536 C 160.044 217.831,160.642 217.926,160.638 218.819 C 160.635 219.350,158.497 220.800,157.717 220.800 C 157.498 220.800,156.519 220.172,155.540 219.405 C 153.032 217.439,152.258 217.229,152.658 218.622 C 154.861 226.302,145.245 234.668,137.793 231.554 L 136.556 231.037 136.744 232.194 C 136.847 232.831,137.535 234.278,138.272 235.410 C 139.741 237.664,139.736 237.796,138.092 239.858 C 136.907 241.344,136.036 240.432,137.001 238.715 L 137.680 237.507 136.452 235.516 C 135.456 233.903,135.221 233.216,135.212 231.890 C 135.201 230.463,135.071 230.140,134.188 229.358 C 133.296 228.569,132.775 227.836,130.606 224.320 L 130.112 223.520 129.870 224.640 C 129.737 225.256,129.713 226.926,129.817 228.350 L 130.007 230.940 128.775 232.590 C 128.098 233.498,127.354 234.240,127.122 234.240 C 126.287 234.240,126.342 233.256,127.245 232.077 C 128.114 230.941,128.161 230.709,128.181 227.520 C 128.194 225.415,128.377 223.682,128.671 222.880 C 129.101 221.705,129.088 221.476,128.506 220.080 L 127.873 218.560 126.155 218.560 C 124.238 218.560,123.647 218.316,121.672 216.705 L 120.304 215.590 119.021 216.168 C 116.577 217.271,116.402 215.721,118.824 214.418 L 120.278 213.636 122.442 215.298 C 124.251 216.687,124.825 216.960,125.936 216.960 L 127.266 216.960 126.833 215.290 C 126.595 214.372,126.400 213.380,126.400 213.087 C 126.400 212.793,126.185 212.141,125.922 211.637 C 125.659 211.132,125.443 210.491,125.442 210.210 C 125.440 209.821,124.732 209.567,122.433 209.134 C 118.023 208.304,116.603 208.965,114.726 212.720 C 114.264 213.644,113.745 214.400,113.573 214.400 C 111.796 214.400,114.784 209.208,117.247 208.016 C 118.886 207.223,119.893 207.200,123.015 207.886 L 125.408 208.412 127.104 206.648 C 128.037 205.678,129.051 204.752,129.357 204.591 C 129.864 204.324,129.883 204.050,129.565 201.585 C 128.978 197.041,129.907 195.096,133.529 193.286 C 135.438 192.332,136.800 192.130,136.800 192.800 M152.788 331.423 C 135.476 358.602,116.043 389.144,115.722 389.680 C 115.531 389.999,123.427 390.080,154.781 390.079 L 194.080 390.077 202.376 372.079 C 214.972 344.752,215.461 343.674,215.326 343.547 C 214.877 343.127,167.533 309.683,167.212 309.560 C 166.962 309.464,161.575 317.628,152.788 331.423 " stroke="none" fill="#41dfbf" fill-rule="evenodd"></path><path id="path2" d="M218.880 42.462 C 174.003 47.269,145.307 91.479,159.364 134.153 C 166.658 156.295,185.026 173.732,207.277 179.639 L 210.021 180.367 210.407 181.886 C 210.803 183.446,211.837 185.120,212.860 185.858 C 213.362 186.220,213.440 186.770,213.440 189.931 L 213.440 193.586 214.727 192.189 C 219.134 187.409,227.085 188.667,230.057 194.616 C 231.870 198.244,231.829 198.453,225.729 216.644 L 220.419 232.480 220.398 240.640 C 220.386 245.250,220.608 252.066,220.909 256.308 C 222.203 274.598,221.296 279.947,215.052 290.859 L 213.440 293.676 213.440 307.331 C 213.440 322.549,213.415 322.365,215.712 324.297 C 223.466 330.823,238.066 327.130,238.078 318.640 C 238.080 317.166,238.359 317.141,234.632 318.952 C 232.920 319.783,231.412 320.515,231.280 320.579 C 229.659 321.354,232.326 308.682,234.448 305.528 L 235.542 303.903 234.991 301.311 C 234.127 297.250,234.214 290.948,235.169 288.480 C 236.127 286.005,236.110 285.585,234.904 281.760 C 232.536 274.248,232.777 269.774,235.899 263.287 C 237.728 259.488,237.828 259.166,237.347 258.634 C 234.266 255.229,234.165 247.092,237.131 241.157 L 238.080 239.258 238.080 213.250 L 238.080 187.243 238.755 187.029 C 240.716 186.406,243.177 183.042,243.194 180.960 C 243.202 180.011,243.249 179.985,247.509 178.619 C 285.447 166.455,305.469 123.912,290.851 86.524 C 279.585 57.710,249.349 39.199,218.880 42.462 M231.726 52.814 C 276.184 57.302,300.144 107.979,275.366 145.117 C 249.733 183.538,191.858 179.468,172.009 137.847 C 152.029 95.952,185.594 48.158,231.726 52.814 M203.520 82.828 C 202.958 82.997,202.720 83.295,202.720 83.832 L 202.720 84.595 207.360 84.619 C 214.960 84.658,216.334 85.773,219.213 94.240 C 219.872 96.176,220.501 97.979,220.611 98.247 C 220.746 98.572,220.498 98.920,219.870 99.291 C 218.493 100.105,217.378 102.003,217.958 102.548 C 218.983 103.510,230.293 107.129,234.026 107.689 L 235.520 107.913 235.520 106.184 C 235.520 105.138,235.288 104.000,234.932 103.301 L 234.343 102.148 237.732 99.581 C 244.866 94.178,247.596 94.076,254.028 98.971 C 256.443 100.809,257.280 100.985,257.280 99.656 C 257.280 98.716,253.959 96.113,250.893 94.650 C 246.118 92.371,242.646 93.180,236.351 98.036 C 232.671 100.874,233.220 100.727,230.718 99.544 C 228.738 98.607,224.687 97.711,223.864 98.026 C 223.117 98.313,222.196 96.908,221.277 94.080 C 218.312 84.955,215.878 82.807,208.347 82.664 C 206.132 82.622,203.960 82.696,203.520 82.828 M203.383 91.703 C 202.399 92.687,202.804 93.290,205.470 94.810 L 206.941 95.649 206.489 98.624 C 205.756 103.451,206.393 106.802,208.538 109.407 L 209.170 110.174 209.863 109.200 L 210.557 108.225 209.567 106.109 C 208.412 103.642,208.380 103.127,209.082 98.278 C 209.697 94.024,209.805 94.271,206.563 92.481 C 203.894 91.008,204.041 91.044,203.383 91.703 M243.238 108.853 C 241.380 112.785,240.337 114.129,238.489 114.971 C 237.987 115.199,237.760 115.577,237.760 116.185 C 237.760 119.895,242.466 116.444,245.141 110.773 L 246.719 107.427 248.918 107.611 C 251.289 107.810,251.840 107.576,251.840 106.370 C 251.840 105.463,251.380 105.308,247.958 105.066 L 245.123 104.864 243.238 108.853 M201.817 116.188 C 198.910 117.017,197.512 117.757,194.050 120.301 L 191.139 122.439 188.018 122.074 C 185.413 121.770,184.822 121.784,184.448 122.158 C 183.213 123.393,184.154 124.061,187.700 124.467 C 192.170 124.979,191.936 125.044,195.727 122.235 C 198.269 120.351,199.770 119.482,201.380 118.963 C 203.268 118.355,203.698 118.068,204.495 116.889 C 205.609 115.237,205.371 115.175,201.817 116.188 M238.270 127.955 C 238.294 129.484,238.463 130.046,239.186 130.993 C 239.673 131.632,240.640 133.704,241.335 135.598 C 242.999 140.134,243.016 140.155,246.390 141.898 C 249.639 143.576,250.665 143.677,250.820 142.333 C 250.912 141.534,250.695 141.354,248.047 140.024 L 245.175 138.581 244.227 136.091 C 243.705 134.721,243.112 133.078,242.908 132.440 C 242.454 131.021,238.897 126.080,238.330 126.080 C 238.280 126.080,238.253 126.924,238.270 127.955 M195.330 134.034 C 192.776 135.702,192.328 136.272,190.536 140.115 L 188.991 143.430 186.854 143.219 C 184.169 142.955,183.044 143.692,184.080 145.036 C 184.388 145.436,185.181 145.579,187.520 145.658 L 190.560 145.760 192.640 141.610 C 194.498 137.904,194.881 137.357,196.223 136.490 C 197.617 135.590,197.726 135.422,197.743 134.160 C 197.764 132.498,197.687 132.494,195.330 134.034 M234.017 146.373 C 233.414 147.305,233.361 147.626,233.642 148.645 C 233.884 149.520,233.837 150.797,233.465 153.504 C 232.694 159.112,232.425 158.575,237.254 161.080 C 239.894 162.449,240.149 159.851,237.520 158.371 C 236.508 157.802,235.625 157.292,235.557 157.238 C 235.489 157.184,235.684 155.483,235.990 153.458 C 236.542 149.812,236.540 149.754,235.864 147.528 C 235.084 144.958,234.977 144.891,234.017 146.373 M133.920 193.241 C 132.864 193.748,131.496 194.693,130.880 195.341 L 129.760 196.520 129.760 200.487 L 129.760 204.454 128.480 205.407 C 127.776 205.931,126.912 206.810,126.560 207.359 C 125.963 208.290,125.822 208.346,124.480 208.188 C 117.157 207.324,115.496 207.959,113.547 212.365 C 112.429 214.894,113.430 215.026,114.701 212.517 C 116.567 208.835,118.388 208.125,123.273 209.174 C 125.592 209.673,125.760 209.765,125.765 210.534 C 125.779 212.892,126.934 212.386,131.605 207.980 C 134.507 205.243,134.566 204.850,132.160 204.245 L 131.040 203.964 130.755 201.222 C 130.319 197.023,131.299 195.283,134.842 193.963 C 135.746 193.626,136.526 193.122,136.583 192.837 C 136.731 192.098,136.106 192.193,133.920 193.241 M136.642 198.128 C 135.441 199.787,135.432 199.669,136.929 201.874 C 137.615 202.885,138.304 204.352,138.458 205.134 C 138.828 207.006,139.840 207.357,139.840 205.613 C 139.840 204.234,139.211 202.631,138.096 201.170 C 137.111 199.877,137.109 199.858,137.950 198.678 C 138.602 197.762,138.593 196.800,137.932 196.800 C 137.752 196.800,137.171 197.398,136.642 198.128 M153.154 208.331 L 151.620 209.304 149.153 208.926 C 147.730 208.708,146.017 208.649,145.106 208.785 L 143.527 209.022 144.484 209.532 C 145.010 209.813,145.800 210.009,146.240 209.969 C 146.680 209.929,148.076 210.094,149.343 210.335 L 151.645 210.775 153.289 209.826 C 154.982 208.848,155.507 208.179,154.986 207.658 C 154.801 207.473,154.104 207.729,153.154 208.331 M118.576 214.742 C 116.565 216.018,117.054 217.224,119.094 216.020 L 120.208 215.363 121.524 216.490 C 123.170 217.898,124.726 218.560,126.390 218.560 C 128.441 218.560,127.989 217.500,125.791 217.157 C 124.783 216.999,123.812 216.484,122.385 215.348 C 120.023 213.468,120.472 213.540,118.576 214.742 M152.137 216.535 C 152.238 216.797,152.320 217.129,152.320 217.271 C 152.320 217.414,152.666 217.617,153.088 217.723 C 153.511 217.830,154.688 218.593,155.704 219.421 L 157.550 220.925 159.015 220.108 C 161.349 218.806,161.036 217.522,158.681 218.740 C 157.739 219.227,157.680 219.212,156.377 218.157 C 154.231 216.420,151.725 215.461,152.137 216.535 M128.706 223.422 C 128.082 225.901,128.058 226.211,128.326 228.369 C 128.588 230.479,128.579 230.519,127.487 231.948 C 126.881 232.742,126.436 233.547,126.499 233.736 C 126.767 234.543,127.597 234.126,128.664 232.648 L 129.808 231.063 129.751 226.875 C 129.691 222.396,129.294 221.087,128.706 223.422 M135.417 232.246 C 135.530 233.816,135.766 234.443,136.766 235.836 L 137.979 237.523 137.309 238.429 C 136.941 238.927,136.640 239.566,136.640 239.851 C 136.640 240.748,137.684 240.224,138.659 238.838 L 139.586 237.518 138.113 235.323 C 137.172 233.920,136.640 232.778,136.640 232.160 C 136.640 231.521,136.409 231.050,135.960 230.769 C 135.289 230.351,135.281 230.373,135.417 232.246 " stroke="none" fill="#342c33" fill-rule="evenodd"></path><path id="path3" d="M48.664 11.046 C 47.357 11.461,46.163 12.023,46.010 12.296 C 45.858 12.569,45.433 12.952,45.068 13.148 C 44.590 13.404,44.464 13.405,44.620 13.152 C 44.948 12.621,44.440 12.729,43.280 13.436 C 42.154 14.123,41.832 14.641,42.880 14.080 C 43.803 13.586,43.667 13.910,42.681 14.556 C 42.219 14.859,41.951 14.929,42.085 14.712 C 42.243 14.456,42.173 14.369,41.885 14.464 C 41.640 14.544,41.280 14.929,41.085 15.317 C 40.574 16.333,39.336 17.583,38.918 17.506 C 38.721 17.470,38.596 17.620,38.640 17.840 C 38.684 18.060,38.510 18.240,38.254 18.240 C 37.705 18.240,35.330 22.134,35.034 23.520 C 34.878 24.249,34.910 24.364,35.169 24.000 C 35.357 23.736,35.510 23.664,35.510 23.840 C 35.510 24.324,35.005 25.020,34.684 24.977 C 34.528 24.957,34.367 25.341,34.327 25.830 C 34.265 26.597,34.295 26.632,34.545 26.080 C 34.924 25.244,34.938 26.160,34.560 27.040 C 34.365 27.493,34.269 27.540,34.230 27.200 C 34.200 26.936,34.044 27.279,33.884 27.963 C 33.673 28.861,33.704 29.341,33.996 29.695 C 34.318 30.085,34.319 30.211,34.000 30.319 C 33.681 30.426,33.600 52.593,33.600 139.726 C 33.600 212.492,33.707 248.932,33.920 248.800 C 34.096 248.691,34.240 248.755,34.240 248.941 C 34.240 249.128,34.087 249.280,33.900 249.280 C 33.679 249.280,33.633 249.811,33.768 250.800 C 34.064 252.971,34.917 256.000,35.232 256.000 C 35.379 256.000,35.419 255.748,35.320 255.440 C 35.168 254.967,35.193 254.955,35.485 255.360 C 35.946 256.002,35.937 256.738,35.471 256.449 C 35.240 256.307,35.188 256.362,35.333 256.596 C 35.460 256.802,35.685 256.896,35.832 256.805 C 35.979 256.714,36.560 257.468,37.125 258.480 C 37.689 259.492,38.459 260.689,38.835 261.140 C 39.212 261.591,38.888 261.303,38.115 260.500 L 36.709 259.040 37.795 260.602 C 39.106 262.488,41.925 265.027,42.475 264.815 C 42.694 264.732,42.838 264.838,42.796 265.052 C 42.694 265.570,47.038 267.708,49.427 268.315 C 51.090 268.738,57.656 268.800,100.707 268.800 L 150.080 268.800 150.080 286.919 C 150.080 301.370,149.999 304.974,149.680 304.721 C 149.073 304.239,140.399 304.542,138.129 305.123 C 135.735 305.737,132.674 307.237,131.200 308.519 C 130.002 309.562,130.424 309.451,132.000 308.310 C 133.157 307.472,134.064 306.966,133.600 307.418 C 132.880 308.118,129.807 310.201,130.033 309.835 C 130.168 309.618,130.143 309.440,129.978 309.440 C 129.511 309.440,128.938 310.269,129.203 310.561 C 129.333 310.705,129.283 310.733,129.092 310.625 C 128.901 310.516,128.253 310.847,127.652 311.360 C 127.051 311.874,126.658 312.300,126.777 312.307 C 126.897 312.314,127.227 312.087,127.512 311.802 C 127.797 311.517,128.104 311.357,128.194 311.447 C 128.283 311.537,127.891 311.942,127.321 312.348 C 126.751 312.754,126.391 312.914,126.521 312.703 C 126.892 312.103,126.238 312.255,125.649 312.906 C 125.357 313.228,125.227 313.611,125.359 313.757 C 125.492 313.903,125.437 313.929,125.237 313.815 C 124.785 313.557,121.528 316.104,121.782 316.516 C 121.884 316.681,121.849 316.795,121.704 316.770 C 120.969 316.642,120.490 316.816,120.885 317.067 C 121.176 317.251,120.931 317.613,120.024 318.342 C 118.688 319.416,118.208 319.623,118.596 318.960 C 118.725 318.740,118.517 318.834,118.135 319.170 C 117.305 319.897,117.203 320.260,118.000 319.649 C 118.308 319.413,118.211 319.611,117.784 320.090 C 117.047 320.917,116.223 321.315,116.638 320.644 C 116.752 320.459,116.616 320.411,116.310 320.528 C 115.966 320.660,115.908 320.804,116.141 320.948 C 116.377 321.094,116.285 321.357,115.868 321.735 C 115.514 322.055,115.070 322.198,114.851 322.062 C 114.620 321.920,114.544 321.955,114.663 322.148 C 114.919 322.561,113.822 323.578,113.255 323.453 C 113.021 323.402,112.816 323.576,112.800 323.840 C 112.784 324.104,112.597 324.284,112.385 324.240 C 112.173 324.196,112.036 324.322,112.080 324.520 C 112.124 324.718,111.960 324.953,111.715 325.042 C 111.417 325.150,111.355 325.068,111.525 324.792 C 111.693 324.521,111.652 324.460,111.404 324.613 C 111.198 324.740,111.102 324.962,111.191 325.106 C 111.367 325.391,110.752 326.007,110.243 326.056 C 110.069 326.072,109.925 326.336,109.923 326.642 C 109.922 326.948,109.752 327.199,109.547 327.199 C 109.341 327.200,109.053 327.331,108.907 327.491 C 108.752 327.661,108.808 327.686,109.040 327.552 C 109.549 327.260,109.542 327.371,108.973 328.683 C 108.715 329.275,108.499 329.556,108.493 329.307 C 108.486 329.057,108.387 328.946,108.274 329.059 C 108.161 329.172,108.254 329.487,108.480 329.760 C 108.706 330.033,108.799 330.348,108.686 330.461 C 108.573 330.574,108.478 330.463,108.475 330.213 C 108.471 329.824,108.430 329.824,108.182 330.216 C 107.620 331.104,107.747 348.981,108.319 349.554 C 108.596 349.831,108.818 350.134,108.811 350.229 C 108.790 350.556,110.028 351.626,110.213 351.440 C 110.316 351.337,110.400 351.430,110.400 351.646 C 110.400 351.861,110.544 351.949,110.720 351.840 C 110.896 351.731,111.040 351.760,111.040 351.903 C 111.040 352.415,113.020 353.034,114.099 352.859 C 114.698 352.762,115.271 352.817,115.373 352.981 C 115.482 353.157,120.334 353.280,127.207 353.280 L 138.857 353.280 139.654 352.107 C 140.093 351.461,140.387 350.828,140.308 350.700 C 140.228 350.572,140.388 350.381,140.662 350.276 C 140.936 350.171,141.071 349.940,140.961 349.762 C 140.852 349.585,140.898 349.440,141.064 349.440 C 141.434 349.440,142.507 347.851,142.507 347.304 C 142.507 347.086,142.708 346.830,142.954 346.736 C 143.199 346.642,143.311 346.420,143.201 346.242 C 143.092 346.065,143.138 345.920,143.304 345.920 C 143.674 345.920,144.747 344.331,144.747 343.784 C 144.747 343.566,144.948 343.310,145.194 343.216 C 145.439 343.122,145.551 342.900,145.441 342.722 C 145.332 342.545,145.378 342.400,145.544 342.400 C 145.914 342.400,146.987 340.811,146.987 340.264 C 146.987 340.046,147.188 339.790,147.434 339.696 C 147.679 339.602,147.791 339.380,147.681 339.202 C 147.572 339.025,147.618 338.880,147.784 338.880 C 148.159 338.880,149.227 337.288,149.227 336.730 C 149.227 336.504,149.328 336.320,149.451 336.320 C 149.574 336.320,150.079 335.708,150.572 334.960 C 151.148 334.086,151.259 333.772,150.882 334.080 C 150.332 334.530,150.319 334.515,150.684 333.831 C 150.897 333.430,151.193 333.177,151.340 333.268 C 151.487 333.359,151.588 333.183,151.564 332.877 C 151.540 332.570,151.695 332.354,151.908 332.396 C 152.122 332.438,152.220 332.273,152.127 332.029 C 152.033 331.784,152.132 331.476,152.348 331.343 C 152.614 331.178,152.656 331.234,152.480 331.520 C 152.307 331.799,152.346 331.862,152.596 331.707 C 152.802 331.580,152.889 331.345,152.790 331.185 C 152.549 330.795,153.240 329.538,153.580 329.748 C 153.727 329.839,153.828 329.663,153.804 329.357 C 153.780 329.050,153.935 328.834,154.148 328.876 C 154.362 328.918,154.460 328.753,154.367 328.509 C 154.273 328.264,154.372 327.956,154.588 327.823 C 154.854 327.658,154.896 327.714,154.720 328.000 C 154.547 328.279,154.586 328.342,154.836 328.187 C 155.042 328.060,155.129 327.825,155.030 327.665 C 154.789 327.275,155.480 326.018,155.820 326.228 C 155.967 326.319,156.068 326.143,156.044 325.837 C 156.020 325.529,156.189 325.319,156.424 325.368 C 156.666 325.418,156.753 325.302,156.626 325.097 C 156.503 324.899,156.858 324.325,157.421 323.810 C 157.981 323.299,158.349 322.737,158.240 322.561 C 158.131 322.384,158.176 322.240,158.339 322.240 C 158.703 322.240,160.427 319.682,160.427 319.140 C 160.427 318.924,160.628 318.670,160.874 318.576 C 161.119 318.482,161.231 318.260,161.121 318.082 C 161.012 317.905,161.058 317.760,161.224 317.760 C 161.599 317.760,162.667 316.168,162.667 315.610 C 162.667 315.384,162.768 315.200,162.891 315.200 C 163.162 315.200,164.757 312.834,164.875 312.255 C 164.922 312.028,165.176 311.651,165.440 311.417 C 165.867 311.040,165.867 311.019,165.440 311.230 C 165.176 311.360,165.527 310.923,166.219 310.259 C 167.355 309.170,167.517 309.104,167.871 309.588 C 168.377 310.280,167.845 312.362,173.098 289.119 C 175.728 277.481,177.508 268.948,177.403 268.479 C 177.257 267.825,177.292 267.767,177.598 268.160 C 177.902 268.550,177.937 268.481,177.788 267.791 C 177.516 266.538,177.934 264.618,178.296 265.455 C 178.474 265.866,178.507 265.641,178.392 264.800 C 178.260 263.836,178.301 263.639,178.560 264.000 C 178.819 264.361,178.860 264.164,178.728 263.200 C 178.591 262.199,178.624 262.060,178.880 262.560 C 179.136 263.060,179.169 262.921,179.032 261.920 C 178.896 260.931,178.938 260.749,179.214 261.120 C 179.499 261.502,179.534 261.427,179.388 260.751 C 179.116 259.498,179.534 257.578,179.896 258.415 C 180.074 258.826,180.107 258.601,179.992 257.760 C 179.860 256.796,179.901 256.599,180.160 256.960 C 180.419 257.321,180.460 257.124,180.328 256.160 C 180.194 255.178,180.227 255.029,180.471 255.520 C 180.763 256.107,180.783 256.094,180.714 255.360 L 180.640 254.560 114.400 254.401 L 48.160 254.242 114.400 254.080 L 180.640 253.918 114.320 253.839 L 48.000 253.760 48.000 139.520 L 48.000 25.280 211.040 25.280 L 374.080 25.280 374.080 139.520 L 374.080 253.760 314.000 253.839 L 253.920 253.917 314.080 254.080 L 374.240 254.243 314.480 254.321 C 281.612 254.365,254.720 254.454,254.720 254.520 C 254.720 254.586,254.938 255.258,255.205 256.013 C 255.471 256.769,255.600 257.669,255.490 258.013 C 255.350 258.455,255.406 258.569,255.680 258.400 C 255.954 258.231,256.010 258.344,255.871 258.782 C 255.762 259.124,255.881 259.971,256.134 260.662 C 256.388 261.354,256.615 261.704,256.640 261.440 C 256.665 261.176,256.892 261.523,257.144 262.212 C 257.396 262.901,257.530 263.537,257.441 263.625 C 257.353 263.714,257.280 263.595,257.280 263.360 C 257.280 263.125,257.205 263.009,257.112 263.101 C 256.840 263.373,257.321 264.332,257.634 264.139 C 258.128 263.834,257.945 264.221,257.379 264.681 C 256.917 265.055,256.877 265.053,257.108 264.671 C 257.293 264.363,257.260 264.294,257.004 264.453 C 256.798 264.580,256.710 264.814,256.808 264.973 C 256.906 265.131,256.512 265.741,255.933 266.327 C 255.354 266.913,255.168 267.025,255.520 266.576 L 256.160 265.760 255.305 266.512 C 254.294 267.401,254.305 268.281,255.372 272.218 C 255.745 273.594,256.687 277.290,257.464 280.432 L 258.879 286.144 250.885 294.311 C 246.488 298.803,242.983 302.627,243.095 302.809 C 243.207 302.990,243.157 303.051,242.983 302.944 C 242.810 302.837,241.965 303.462,241.106 304.334 C 240.247 305.206,239.426 305.920,239.282 305.920 C 239.138 305.920,238.569 306.435,238.016 307.064 C 237.035 308.181,236.100 308.000,236.592 306.788 C 236.679 306.575,236.761 306.664,236.775 306.987 C 236.807 307.745,237.399 307.537,238.179 306.492 C 238.577 305.958,238.699 305.510,238.521 305.232 C 238.369 304.994,238.213 304.512,238.174 304.160 C 238.135 303.808,238.010 303.054,237.896 302.484 C 237.782 301.914,237.798 301.194,237.932 300.884 C 238.066 300.574,238.230 300.038,238.296 299.694 C 238.362 299.350,238.593 298.956,238.808 298.819 C 239.096 298.636,239.072 298.567,238.720 298.560 C 238.293 298.551,238.293 298.516,238.720 298.240 C 238.984 298.069,239.064 297.928,238.899 297.925 C 238.733 297.922,238.877 297.693,239.219 297.416 C 239.560 297.139,239.638 297.017,239.391 297.146 C 239.095 297.299,239.019 297.252,239.169 297.009 C 239.295 296.806,239.605 296.640,239.859 296.640 C 240.123 296.640,240.321 296.333,240.322 295.920 C 240.329 292.939,244.184 287.249,252.229 278.346 L 255.604 274.611 254.852 271.503 C 254.439 269.793,254.060 268.354,254.010 268.305 C 253.792 268.089,246.245 277.191,246.286 277.620 C 246.311 277.884,245.845 278.471,245.249 278.925 C 244.654 279.380,244.236 279.865,244.322 280.003 C 244.473 280.248,243.397 281.301,241.437 282.824 C 240.911 283.233,240.696 283.463,240.960 283.335 C 241.224 283.207,241.728 282.886,242.080 282.622 C 242.432 282.358,242.144 282.703,241.440 283.389 C 240.736 284.074,240.160 284.737,240.160 284.862 C 240.160 284.986,239.959 285.275,239.713 285.504 C 239.384 285.811,239.325 285.815,239.492 285.520 C 239.780 285.010,239.289 284.999,238.784 285.504 C 238.485 285.803,238.389 285.785,238.351 285.424 C 238.247 284.435,238.215 284.308,237.973 283.920 C 237.835 283.700,237.805 283.386,237.906 283.222 C 238.008 283.058,237.962 282.845,237.806 282.748 C 237.577 282.607,237.519 279.520,237.745 279.520 C 237.779 279.520,237.872 279.166,237.952 278.734 C 238.031 278.302,238.253 277.851,238.444 277.733 C 238.679 277.588,238.650 277.461,238.356 277.344 C 238.080 277.234,238.155 277.159,238.560 277.140 C 239.093 277.115,239.119 277.058,238.720 276.800 C 238.322 276.543,238.349 276.488,238.880 276.480 C 239.364 276.473,239.414 276.403,239.084 276.194 C 238.745 275.979,238.737 275.888,239.051 275.783 C 239.273 275.709,239.511 275.079,239.580 274.384 C 239.884 271.321,243.911 264.729,250.717 256.160 C 252.905 253.404,253.752 251.840,253.056 251.840 C 252.877 251.840,252.814 251.624,252.916 251.360 C 253.017 251.096,252.951 250.880,252.768 250.880 C 252.576 250.880,252.527 250.595,252.653 250.200 C 252.808 249.712,252.759 249.588,252.480 249.760 C 252.198 249.934,252.154 249.803,252.320 249.280 C 252.486 248.757,252.442 248.626,252.160 248.800 C 251.878 248.974,251.834 248.843,252.000 248.320 C 252.166 247.797,252.122 247.666,251.840 247.840 C 251.558 248.014,251.514 247.883,251.680 247.360 C 251.851 246.820,251.806 246.703,251.500 246.892 C 251.216 247.068,251.149 246.995,251.281 246.651 C 251.385 246.380,251.315 246.003,251.126 245.814 C 250.739 245.427,247.352 250.463,247.270 251.546 C 247.245 251.884,247.102 252.160,246.953 252.160 C 246.804 252.160,246.772 252.305,246.882 252.483 C 246.991 252.660,246.748 252.939,246.341 253.102 C 245.914 253.274,245.803 253.413,246.080 253.431 C 246.382 253.451,246.263 253.633,245.760 253.920 C 245.268 254.201,245.145 254.386,245.440 254.400 C 245.744 254.414,245.626 254.603,245.120 254.913 C 244.529 255.276,244.487 255.356,244.960 255.221 C 245.591 255.041,245.591 255.046,244.979 255.519 C 244.637 255.784,244.493 256.005,244.659 256.011 C 244.824 256.018,244.600 256.228,244.160 256.480 C 243.668 256.761,243.545 256.946,243.840 256.960 C 244.144 256.974,244.026 257.163,243.520 257.473 C 242.929 257.836,242.887 257.916,243.360 257.781 C 243.953 257.612,243.959 257.630,243.445 258.031 C 243.140 258.269,242.989 258.563,243.111 258.684 C 243.233 258.806,243.002 258.992,242.599 259.097 C 242.050 259.241,241.973 259.357,242.293 259.559 C 242.623 259.769,242.597 259.831,242.178 259.835 C 241.880 259.838,241.381 260.272,241.069 260.800 C 240.345 262.025,240.308 262.019,238.857 260.413 C 238.188 259.671,237.738 259.321,237.858 259.633 C 238.133 260.350,237.221 262.180,236.737 261.881 C 236.511 261.741,236.472 261.808,236.630 262.064 C 236.947 262.577,235.533 265.646,235.101 265.379 C 234.920 265.267,234.881 265.342,235.011 265.553 C 235.276 265.982,234.942 267.275,234.617 267.078 C 233.905 266.648,233.959 275.538,234.688 278.796 C 234.993 280.159,235.138 281.441,235.012 281.646 C 234.882 281.856,234.919 281.933,235.097 281.824 C 235.491 281.580,236.598 284.991,236.288 285.492 C 236.148 285.718,236.203 285.771,236.431 285.631 C 236.652 285.494,236.800 285.610,236.800 285.920 C 236.800 286.230,236.652 286.346,236.431 286.209 C 236.213 286.075,236.148 286.121,236.272 286.322 C 236.570 286.805,236.160 287.718,235.757 287.469 C 235.572 287.355,235.512 287.408,235.622 287.587 C 235.733 287.766,235.597 288.976,235.319 290.276 C 234.741 292.988,234.884 297.654,235.658 301.336 C 235.917 302.566,236.111 303.848,236.089 304.186 C 236.068 304.524,236.162 305.142,236.299 305.560 C 236.472 306.085,236.439 306.253,236.194 306.101 C 235.999 305.981,235.840 305.627,235.840 305.314 C 235.840 305.002,235.644 304.747,235.404 304.747 C 235.165 304.747,234.985 304.975,235.004 305.253 C 235.024 305.532,234.849 305.720,234.616 305.672 C 234.383 305.624,234.274 305.716,234.374 305.877 C 234.641 306.309,233.146 309.515,232.818 309.216 C 232.662 309.073,232.642 309.141,232.773 309.368 C 232.902 309.592,232.789 310.744,232.523 311.928 C 231.695 315.601,231.477 319.738,232.124 319.489 C 232.831 319.218,233.326 318.252,233.083 317.619 C 232.976 317.340,233.066 316.898,233.283 316.636 C 233.501 316.374,233.553 316.158,233.399 316.155 C 233.246 316.152,233.336 316.011,233.600 315.840 C 234.027 315.564,234.027 315.528,233.600 315.514 C 233.301 315.503,233.421 315.313,233.920 315.007 C 234.360 314.737,234.481 314.588,234.190 314.676 C 233.898 314.765,234.298 314.199,235.078 313.418 C 235.859 312.638,236.637 312.000,236.808 312.000 C 236.980 312.000,237.120 311.850,237.120 311.666 C 237.120 311.018,240.067 308.194,242.498 306.511 C 245.219 304.628,254.469 299.163,254.642 299.336 C 254.703 299.396,254.575 301.634,254.359 304.310 L 253.966 309.175 246.023 313.149 L 238.080 317.122 238.080 318.940 C 238.080 324.094,233.475 327.446,226.325 327.495 C 223.687 327.513,222.687 327.631,222.569 327.937 C 222.473 328.185,222.552 328.264,222.765 328.132 C 222.981 327.999,223.064 328.088,222.975 328.355 C 222.893 328.600,222.671 328.800,222.480 328.800 C 222.289 328.800,222.013 328.931,221.867 329.091 C 221.709 329.263,221.781 329.278,222.042 329.127 C 222.343 328.952,222.436 329.011,222.335 329.315 C 222.253 329.560,222.031 329.760,221.840 329.760 C 221.649 329.760,221.373 329.891,221.227 330.051 C 221.069 330.223,221.141 330.238,221.402 330.087 C 221.703 329.912,221.796 329.971,221.695 330.275 C 221.613 330.520,221.391 330.720,221.200 330.720 C 221.009 330.720,220.733 330.851,220.587 331.011 C 220.429 331.183,220.501 331.198,220.762 331.047 C 221.063 330.872,221.156 330.931,221.055 331.235 C 220.973 331.480,220.751 331.680,220.560 331.680 C 220.369 331.680,220.093 331.811,219.947 331.971 C 219.789 332.143,219.861 332.158,220.122 332.007 C 220.423 331.832,220.516 331.891,220.415 332.195 C 220.333 332.440,220.111 332.640,219.920 332.640 C 219.729 332.640,219.453 332.771,219.307 332.931 C 219.152 333.101,219.208 333.126,219.440 332.992 C 220.036 332.649,219.923 333.294,219.299 333.801 C 218.832 334.179,218.795 334.174,219.030 333.760 C 219.753 332.488,218.705 333.962,216.413 337.440 C 213.955 341.172,213.150 342.617,213.730 342.258 C 213.886 342.162,214.099 342.308,214.204 342.582 C 214.311 342.861,214.559 342.979,214.767 342.851 C 214.988 342.715,215.053 342.760,214.927 342.963 C 214.811 343.151,214.897 343.367,215.118 343.443 C 215.415 343.544,215.330 343.976,214.794 345.091 C 214.395 345.922,214.165 346.759,214.283 346.950 C 214.405 347.146,214.352 347.208,214.163 347.091 C 213.783 346.856,213.342 347.743,213.618 348.189 C 213.717 348.349,213.672 348.480,213.518 348.480 C 213.097 348.480,212.118 350.713,212.364 351.111 C 212.502 351.335,212.427 351.365,212.155 351.197 C 211.845 351.005,211.788 351.082,211.942 351.484 C 212.067 351.810,212.024 351.954,211.836 351.838 C 211.662 351.730,211.520 351.783,211.520 351.955 C 211.520 352.127,211.433 352.495,211.326 352.774 C 211.149 353.234,215.494 353.280,259.139 353.280 C 297.246 353.280,307.180 353.198,307.308 352.880 C 307.432 352.572,307.475 352.577,307.495 352.899 C 307.509 353.129,307.628 353.253,307.760 353.173 C 307.892 353.094,308.715 352.933,309.589 352.816 C 310.463 352.699,311.723 352.297,312.389 351.923 C 313.503 351.297,313.654 351.116,313.571 350.509 C 313.556 350.393,313.772 350.169,314.051 350.013 C 315.184 349.379,314.672 327.360,313.524 327.360 C 313.378 327.360,313.418 327.660,313.615 328.027 C 313.811 328.394,313.901 328.765,313.815 328.852 C 313.729 328.938,313.556 328.684,313.430 328.288 C 313.304 327.893,312.561 326.884,311.777 326.046 C 310.994 325.209,310.375 324.409,310.401 324.270 C 310.427 324.130,310.273 323.958,310.059 323.886 C 309.804 323.801,309.762 323.908,309.937 324.198 C 310.156 324.562,310.104 324.560,309.646 324.188 C 309.209 323.833,309.178 323.680,309.505 323.473 C 309.928 323.205,309.408 323.034,308.640 323.189 C 308.464 323.224,308.428 323.145,308.561 323.013 C 308.845 322.729,307.899 321.595,307.390 321.610 C 307.198 321.616,307.320 321.832,307.661 322.090 C 308.003 322.349,308.128 322.560,307.940 322.560 C 307.524 322.560,306.823 321.764,307.045 321.542 C 307.132 321.455,306.493 320.784,305.624 320.052 C 304.041 318.716,303.437 318.388,303.879 319.103 C 304.009 319.314,303.649 319.154,303.079 318.748 C 302.509 318.342,302.117 317.937,302.206 317.847 C 302.296 317.757,302.603 317.917,302.888 318.202 C 303.173 318.487,303.499 318.720,303.614 318.720 C 304.078 318.720,302.456 317.392,301.890 317.309 C 301.555 317.259,301.278 317.089,301.275 316.929 C 301.267 316.465,300.790 315.840,300.442 315.840 C 300.266 315.840,300.225 316.006,300.351 316.209 C 300.496 316.446,300.438 316.492,300.188 316.337 C 299.973 316.205,299.879 316.014,299.979 315.914 C 300.205 315.688,299.215 314.560,298.791 314.560 C 298.621 314.560,298.679 314.812,298.921 315.120 C 299.318 315.627,299.307 315.639,298.804 315.244 C 298.497 315.004,298.313 314.701,298.394 314.570 C 298.609 314.222,297.061 312.860,296.701 313.082 C 296.315 313.321,294.656 312.043,294.880 311.680 C 295.120 311.292,293.434 310.049,293.002 310.296 C 292.803 310.409,292.748 310.383,292.881 310.237 C 293.160 309.930,292.229 308.795,291.710 308.810 C 291.518 308.816,291.640 309.032,291.981 309.290 C 292.323 309.549,292.448 309.760,292.260 309.760 C 292.072 309.760,291.739 309.544,291.520 309.280 C 291.301 309.016,291.229 308.800,291.360 308.800 C 291.491 308.800,291.419 308.584,291.200 308.320 C 290.638 307.643,290.067 307.719,290.601 308.400 C 290.998 308.907,290.987 308.919,290.484 308.524 C 290.177 308.284,290.009 307.956,290.108 307.794 C 290.889 306.532,283.350 304.617,277.295 304.539 L 272.651 304.480 272.566 286.640 L 272.480 268.800 321.760 268.795 C 375.140 268.790,372.700 268.867,376.763 267.070 C 378.366 266.361,379.392 265.532,378.010 266.063 C 377.707 266.179,377.576 266.158,377.719 266.017 C 377.861 265.876,378.289 265.760,378.669 265.760 C 379.049 265.760,379.326 265.585,379.284 265.372 C 379.242 265.158,379.396 265.055,379.625 265.143 C 380.139 265.340,383.115 262.780,382.858 262.364 C 382.756 262.199,382.863 262.104,383.096 262.152 C 383.329 262.200,383.480 262.049,383.432 261.816 C 383.384 261.583,383.472 261.472,383.629 261.569 C 383.786 261.666,384.172 261.460,384.487 261.112 C 384.814 260.751,384.901 260.480,384.690 260.480 C 384.486 260.480,384.320 260.648,384.320 260.853 C 384.320 261.059,384.236 261.143,384.134 261.041 C 383.876 260.783,384.973 259.170,385.279 259.359 C 385.660 259.595,386.325 258.637,386.068 258.221 C 385.847 257.863,387.179 254.593,387.440 254.854 C 387.513 254.926,387.411 255.286,387.215 255.653 C 387.018 256.020,386.931 256.320,387.021 256.320 C 387.372 256.320,388.106 254.454,388.594 252.320 C 389.058 250.289,389.106 239.749,389.103 139.520 L 389.100 28.960 388.436 26.343 C 387.731 23.563,385.938 19.680,385.360 19.680 C 385.169 19.680,384.893 19.549,384.747 19.389 C 384.592 19.219,384.648 19.194,384.880 19.328 C 385.100 19.454,385.280 19.402,385.280 19.212 C 385.280 18.694,380.638 14.079,380.125 14.087 C 379.854 14.091,379.993 14.357,380.480 14.766 L 381.280 15.439 380.480 14.960 C 380.040 14.697,379.680 14.322,379.680 14.127 C 379.680 13.746,378.760 13.037,377.823 12.697 C 377.479 12.572,377.325 12.615,377.442 12.804 C 377.775 13.342,377.064 13.152,376.599 12.579 C 376.221 12.112,376.226 12.074,376.640 12.306 C 376.977 12.494,377.025 12.471,376.800 12.227 C 376.624 12.037,375.346 11.512,373.959 11.060 L 371.438 10.240 211.239 10.266 L 51.040 10.292 48.664 11.046 M383.040 16.865 C 383.040 16.925,382.680 16.739,382.240 16.451 C 381.800 16.162,381.440 15.800,381.440 15.645 C 381.440 15.491,381.800 15.677,382.240 16.060 C 382.680 16.442,383.040 16.805,383.040 16.865 M39.518 16.322 C 38.663 17.267,39.121 17.416,40.001 16.479 C 40.414 16.039,40.605 15.680,40.425 15.680 C 40.246 15.680,39.838 15.969,39.518 16.322 M37.562 19.840 C 37.096 20.544,36.654 21.120,36.579 21.120 C 36.417 21.120,36.686 20.636,37.514 19.440 C 38.468 18.063,38.509 18.409,37.562 19.840 M292.720 24.880 C 247.884 24.925,174.516 24.925,129.680 24.880 C 84.844 24.835,121.528 24.799,211.200 24.799 C 300.872 24.799,337.556 24.835,292.720 24.880 M374.640 196.720 C 374.595 228.180,374.558 202.440,374.558 139.520 C 374.558 76.600,374.595 50.860,374.640 82.320 C 374.685 113.780,374.685 165.260,374.640 196.720 M34.160 194.000 C 34.115 223.964,34.078 199.448,34.078 139.520 C 34.078 79.592,34.115 55.076,34.160 85.040 C 34.205 115.004,34.205 164.036,34.160 194.000 M224.560 42.151 C 225.132 42.222,226.068 42.222,226.640 42.151 C 227.212 42.081,226.744 42.022,225.600 42.022 C 224.456 42.022,223.988 42.081,224.560 42.151 M222.160 52.701 C 222.468 52.781,222.972 52.781,223.280 52.701 C 223.588 52.620,223.336 52.554,222.720 52.554 C 222.104 52.554,221.852 52.620,222.160 52.701 M228.240 52.701 C 228.548 52.781,229.052 52.781,229.360 52.701 C 229.668 52.620,229.416 52.554,228.800 52.554 C 228.184 52.554,227.932 52.620,228.240 52.701 M206.966 82.472 C 207.541 82.543,208.405 82.542,208.886 82.469 C 209.367 82.396,208.896 82.337,207.840 82.339 C 206.784 82.341,206.391 82.401,206.966 82.472 M217.247 102.240 C 217.223 102.416,217.225 102.679,217.250 102.824 C 217.275 102.969,217.143 102.993,216.955 102.877 C 216.768 102.761,216.088 103.219,215.445 103.893 C 214.801 104.568,214.478 104.832,214.727 104.480 C 214.976 104.128,214.170 104.776,212.936 105.920 C 211.701 107.064,210.732 108.092,210.782 108.204 C 210.832 108.316,210.653 108.590,210.384 108.813 C 209.616 109.450,207.785 111.850,208.317 111.521 C 208.580 111.359,208.256 111.765,207.597 112.424 C 206.490 113.531,206.250 113.970,206.370 114.664 C 206.395 114.809,206.268 114.836,206.088 114.725 C 205.908 114.613,205.760 114.675,205.760 114.861 C 205.760 115.048,205.508 115.211,205.200 115.225 C 204.875 115.240,204.806 115.318,205.034 115.410 C 205.303 115.519,205.059 116.144,204.263 117.385 C 203.623 118.383,203.097 119.380,203.096 119.600 C 203.094 119.820,202.976 120.000,202.833 120.000 C 202.469 120.000,201.263 122.437,201.507 122.680 C 201.617 122.790,201.542 122.880,201.340 122.880 C 200.295 122.880,198.124 129.263,197.875 133.070 C 197.628 136.843,198.958 142.720,200.058 142.720 C 200.223 142.720,200.269 142.863,200.161 143.039 C 200.053 143.214,200.368 143.741,200.862 144.211 C 201.356 144.680,201.544 144.953,201.280 144.817 C 201.016 144.681,201.167 144.910,201.615 145.325 C 202.063 145.740,202.207 145.944,201.935 145.778 C 201.663 145.612,202.299 146.368,203.350 147.458 C 205.236 149.415,205.918 149.970,205.096 148.880 C 204.864 148.572,205.201 148.872,205.845 149.547 C 206.488 150.221,207.165 150.681,207.348 150.568 C 207.530 150.455,207.680 150.512,207.680 150.695 C 207.680 150.877,208.250 151.318,208.947 151.673 C 210.277 152.352,211.061 152.541,210.240 151.985 C 209.880 151.742,209.972 151.710,210.605 151.856 C 211.322 152.022,211.499 151.915,211.779 151.146 C 211.961 150.648,212.131 150.456,212.157 150.720 C 212.216 151.315,212.755 150.162,212.755 149.440 C 212.755 149.137,212.653 149.197,212.480 149.600 C 212.023 150.663,212.164 149.396,212.640 148.160 C 212.877 147.544,213.092 147.256,213.118 147.520 C 213.176 148.116,213.715 146.961,213.715 146.240 C 213.715 145.937,213.613 145.997,213.440 146.400 C 212.983 147.463,213.124 146.196,213.600 144.960 C 213.837 144.344,214.052 144.056,214.078 144.320 C 214.136 144.916,214.675 143.761,214.675 143.040 C 214.675 142.737,214.573 142.797,214.400 143.200 C 213.943 144.263,214.084 142.996,214.560 141.760 C 214.797 141.144,215.012 140.856,215.038 141.120 C 215.096 141.716,215.635 140.561,215.635 139.840 C 215.635 139.537,215.533 139.597,215.360 140.000 C 215.187 140.403,215.085 140.463,215.085 140.160 C 215.085 139.446,215.624 138.281,215.678 138.880 C 215.703 139.158,215.849 139.038,216.027 138.594 C 216.196 138.172,216.256 137.581,216.160 137.280 C 216.064 136.979,216.124 136.388,216.293 135.966 C 216.471 135.522,216.617 135.402,216.642 135.680 C 216.696 136.279,217.235 135.114,217.235 134.400 C 217.235 134.097,217.133 134.157,216.960 134.560 C 216.503 135.623,216.644 134.356,217.120 133.120 C 217.357 132.504,217.572 132.216,217.598 132.480 C 217.656 133.076,218.195 131.921,218.195 131.200 C 218.195 130.897,218.093 130.957,217.920 131.360 C 217.296 132.813,217.678 131.158,218.933 126.976 C 219.666 124.533,220.367 122.697,220.491 122.897 C 220.804 123.404,221.174 121.794,220.905 121.093 C 220.751 120.691,220.806 120.606,221.100 120.788 C 221.406 120.977,221.451 120.860,221.280 120.320 C 221.110 119.784,221.155 119.664,221.456 119.850 C 221.751 120.032,221.812 119.912,221.680 119.410 C 221.581 119.030,221.598 118.780,221.718 118.854 C 221.838 118.928,222.791 116.048,223.836 112.454 C 224.881 108.860,225.885 105.918,226.068 105.915 C 226.250 105.911,224.923 105.411,223.118 104.802 C 219.610 103.618,217.903 102.847,217.525 102.275 C 217.385 102.064,217.272 102.050,217.247 102.240 M235.594 106.240 C 235.594 106.856,235.660 107.108,235.741 106.800 C 235.821 106.492,235.821 105.988,235.741 105.680 C 235.660 105.372,235.594 105.624,235.594 106.240 M166.154 109.120 C 166.154 109.736,166.220 109.988,166.301 109.680 C 166.381 109.372,166.381 108.868,166.301 108.560 C 166.220 108.252,166.154 108.504,166.154 109.120 M285.237 112.160 C 285.238 113.920,285.291 114.599,285.356 113.669 C 285.421 112.739,285.420 111.299,285.355 110.469 C 285.289 109.639,285.236 110.400,285.237 112.160 M155.630 112.160 C 155.631 113.568,155.687 114.104,155.755 113.352 C 155.822 112.599,155.821 111.447,155.753 110.792 C 155.684 110.136,155.629 110.752,155.630 112.160 M166.154 115.200 C 166.154 115.816,166.220 116.068,166.301 115.760 C 166.381 115.452,166.381 114.948,166.301 114.640 C 166.220 114.332,166.154 114.584,166.154 115.200 M219.703 125.303 C 219.585 125.772,219.551 126.217,219.626 126.293 C 219.701 126.368,219.859 126.046,219.977 125.577 C 220.095 125.108,220.129 124.663,220.054 124.587 C 219.979 124.512,219.821 124.834,219.703 125.303 M218.743 128.503 C 218.625 128.972,218.591 129.417,218.666 129.493 C 218.741 129.568,218.899 129.246,219.017 128.777 C 219.135 128.308,219.169 127.863,219.094 127.787 C 219.019 127.712,218.861 128.034,218.743 128.503 M267.670 154.320 L 265.760 156.320 267.760 154.410 C 268.860 153.360,269.760 152.460,269.760 152.410 C 269.760 152.174,269.444 152.462,267.670 154.320 M224.251 171.756 C 225.181 171.821,226.621 171.820,227.451 171.755 C 228.281 171.689,227.520 171.636,225.760 171.637 C 224.000 171.638,223.321 171.691,224.251 171.756 M213.240 190.240 C 213.240 192.176,213.293 192.927,213.357 191.908 C 213.421 190.890,213.420 189.306,213.356 188.388 C 213.291 187.471,213.239 188.304,213.240 190.240 M129.367 199.360 C 129.367 200.152,129.430 200.476,129.506 200.080 C 129.582 199.684,129.582 199.036,129.506 198.640 C 129.430 198.244,129.367 198.568,129.367 199.360 M133.958 205.181 C 134.067 205.358,133.324 206.345,132.306 207.374 L 130.454 209.245 131.619 210.666 C 132.259 211.447,133.680 213.003,134.776 214.123 C 135.872 215.243,136.488 215.951,136.144 215.695 C 135.801 215.439,136.365 216.037,137.399 217.023 C 138.432 218.009,139.191 218.955,139.086 219.125 C 138.981 219.295,139.216 219.706,139.608 220.037 L 140.320 220.640 139.685 219.840 C 139.155 219.172,139.221 219.195,140.085 219.980 C 141.103 220.904,141.504 221.702,140.720 221.244 C 140.500 221.115,140.594 221.323,140.930 221.705 C 141.657 222.535,142.020 222.637,141.409 221.840 C 141.173 221.532,141.371 221.629,141.850 222.056 C 142.733 222.843,143.051 223.591,142.320 223.164 C 142.100 223.035,142.194 223.243,142.530 223.625 C 143.257 224.455,143.620 224.557,143.009 223.760 C 142.773 223.452,142.971 223.549,143.450 223.976 C 144.333 224.763,144.651 225.511,143.920 225.084 C 143.700 224.955,143.794 225.163,144.130 225.545 C 144.857 226.375,145.220 226.477,144.609 225.680 C 144.373 225.372,144.571 225.469,145.050 225.896 C 145.933 226.683,146.251 227.431,145.520 227.004 C 145.300 226.875,145.394 227.083,145.730 227.465 C 146.457 228.294,146.823 228.398,146.205 227.600 C 145.863 227.159,145.925 227.171,146.497 227.660 C 146.896 228.001,147.155 228.455,147.073 228.670 C 146.991 228.884,147.212 229.321,147.565 229.641 C 147.986 230.022,148.172 230.073,148.104 229.791 C 148.047 229.554,148.200 229.287,148.445 229.198 C 148.750 229.087,148.809 229.175,148.633 229.478 C 148.000 230.569,150.192 228.200,151.020 226.898 C 154.469 221.477,153.044 215.260,147.505 211.561 C 146.456 210.860,145.778 210.225,145.999 210.150 C 146.220 210.074,146.124 210.056,145.787 210.110 C 145.450 210.164,144.733 209.891,144.194 209.504 C 143.655 209.117,142.203 208.284,140.967 207.652 C 139.136 206.717,138.683 206.332,138.518 205.572 L 138.316 204.640 138.278 205.539 C 138.254 206.106,138.110 206.357,137.887 206.220 C 137.156 205.768,133.767 204.872,133.958 205.181 M119.124 207.590 C 119.611 207.663,120.331 207.661,120.724 207.585 C 121.118 207.509,120.720 207.449,119.840 207.452 C 118.960 207.454,118.638 207.516,119.124 207.590 M125.840 217.181 C 126.148 217.261,126.652 217.261,126.960 217.181 C 127.268 217.100,127.016 217.034,126.400 217.034 C 125.784 217.034,125.532 217.100,125.840 217.181 M238.542 231.508 C 238.614 235.854,238.542 239.415,238.375 239.728 C 238.212 240.031,238.798 239.579,239.677 238.723 C 240.556 237.867,242.496 236.472,243.988 235.623 C 246.756 234.050,247.085 233.661,246.244 232.963 C 245.981 232.745,245.840 232.450,245.929 232.306 C 246.018 232.162,245.922 231.940,245.716 231.813 C 245.463 231.656,245.424 231.727,245.598 232.031 C 245.753 232.304,245.741 232.355,245.566 232.160 C 243.456 229.814,243.110 229.380,243.520 229.592 C 243.784 229.729,243.459 229.379,242.797 228.814 C 242.135 228.250,241.670 227.666,241.762 227.516 C 241.855 227.367,241.762 227.140,241.556 227.013 C 241.306 226.858,241.262 226.930,241.423 227.231 C 241.556 227.478,241.254 227.179,240.753 226.567 C 240.251 225.955,239.840 225.355,239.840 225.234 C 239.840 225.113,239.709 224.893,239.549 224.747 C 239.377 224.590,239.356 224.677,239.496 224.960 C 239.628 225.224,239.438 225.080,239.075 224.640 L 238.414 223.840 238.542 231.508 M135.127 231.680 C 135.127 232.472,135.190 232.796,135.266 232.400 C 135.342 232.004,135.342 231.356,135.266 230.960 C 135.190 230.564,135.127 230.888,135.127 231.680 M220.241 233.760 C 220.244 234.464,220.310 234.714,220.386 234.316 C 220.463 233.918,220.460 233.342,220.380 233.036 C 220.300 232.730,220.237 233.056,220.241 233.760 M220.234 248.320 C 220.234 248.936,220.300 249.188,220.381 248.880 C 220.461 248.572,220.461 248.068,220.381 247.760 C 220.300 247.452,220.234 247.704,220.234 248.320 M381.120 264.000 C 380.714 264.352,380.310 264.640,380.221 264.640 C 380.133 264.640,380.321 264.352,380.640 264.000 C 380.959 263.648,381.363 263.360,381.539 263.360 C 381.714 263.360,381.526 263.648,381.120 264.000 M221.241 267.520 C 221.241 269.544,221.293 270.372,221.356 269.360 C 221.420 268.348,221.420 266.692,221.356 265.680 C 221.293 264.668,221.241 265.496,221.241 267.520 M126.505 268.400 C 113.275 268.446,91.531 268.446,78.185 268.400 C 64.839 268.354,75.664 268.316,102.240 268.316 C 128.816 268.316,139.735 268.354,126.505 268.400 M344.745 268.400 C 331.515 268.446,309.771 268.446,296.425 268.400 C 283.079 268.354,293.904 268.316,320.480 268.316 C 347.056 268.316,357.975 268.354,344.745 268.400 M237.855 286.870 C 237.330 287.591,236.800 287.918,236.800 287.520 C 236.800 287.262,237.896 286.136,238.175 286.107 C 238.315 286.092,238.171 286.435,237.855 286.870 M255.028 294.433 C 254.617 299.160,254.336 300.220,254.570 296.160 C 254.773 292.648,255.060 290.153,255.239 290.333 C 255.313 290.406,255.218 292.251,255.028 294.433 M213.267 307.200 C 213.267 314.680,213.308 317.740,213.360 314.000 C 213.411 310.260,213.411 304.140,213.360 300.400 C 213.308 296.660,213.267 299.720,213.267 307.200 M146.644 305.185 C 146.251 305.261,145.531 305.263,145.044 305.190 C 144.558 305.116,144.880 305.054,145.760 305.052 C 146.640 305.049,147.038 305.109,146.644 305.185 M277.844 305.185 C 277.451 305.261,276.731 305.263,276.244 305.190 C 275.758 305.116,276.080 305.054,276.960 305.052 C 277.840 305.049,278.238 305.109,277.844 305.185 M295.199 311.998 C 295.307 312.173,295.712 312.482,296.098 312.685 C 296.795 313.051,296.796 313.048,296.190 312.367 C 295.580 311.679,294.829 311.400,295.199 311.998 M123.515 315.535 C 123.078 315.871,122.576 316.145,122.400 316.144 C 122.224 316.144,122.476 315.897,122.960 315.597 C 123.444 315.297,123.840 314.917,123.840 314.753 C 123.840 314.588,123.946 314.559,124.075 314.689 C 124.205 314.818,123.953 315.199,123.515 315.535 M306.533 321.200 C 306.607 321.244,306.596 321.350,306.510 321.437 C 306.424 321.523,305.932 321.127,305.417 320.558 L 304.480 319.522 305.440 320.321 C 305.968 320.761,306.460 321.156,306.533 321.200 M311.840 325.760 C 313.072 327.021,313.280 327.185,313.280 326.891 C 313.280 326.556,311.267 324.480,310.942 324.480 C 310.748 324.480,311.153 325.056,311.840 325.760 " stroke="none" fill="#878860" fill-rule="evenodd"></path><path id="path4" d="M379.702 14.044 C 379.524 14.332,379.932 14.751,380.800 15.174 C 381.064 15.302,380.992 15.171,380.640 14.881 C 380.288 14.592,380.036 14.221,380.080 14.057 C 380.182 13.679,379.933 13.670,379.702 14.044 M39.863 16.610 L 38.926 17.760 40.007 16.730 C 40.601 16.164,41.023 15.646,40.944 15.580 C 40.865 15.514,40.378 15.977,39.863 16.610 M381.440 15.645 C 381.440 15.800,381.800 16.162,382.240 16.451 C 382.680 16.739,383.040 16.925,383.040 16.865 C 383.040 16.805,382.680 16.442,382.240 16.060 C 381.800 15.677,381.440 15.491,381.440 15.645 M37.514 19.440 C 36.686 20.636,36.417 21.120,36.579 21.120 C 36.654 21.120,37.096 20.544,37.562 19.840 C 38.509 18.409,38.468 18.063,37.514 19.440 M129.680 24.880 C 174.516 24.925,247.884 24.925,292.720 24.880 C 337.556 24.835,300.872 24.799,211.200 24.799 C 121.528 24.799,84.844 24.835,129.680 24.880 M48.158 139.520 C 48.158 202.440,48.195 228.180,48.240 196.720 C 48.285 165.260,48.285 113.780,48.240 82.320 C 48.195 50.860,48.158 76.600,48.158 139.520 M374.558 139.520 C 374.558 202.440,374.595 228.180,374.640 196.720 C 374.685 165.260,374.685 113.780,374.640 82.320 C 374.595 50.860,374.558 76.600,374.558 139.520 M34.423 26.423 C 34.305 26.892,34.271 27.337,34.346 27.413 C 34.421 27.488,34.579 27.166,34.697 26.697 C 34.815 26.228,34.849 25.783,34.774 25.707 C 34.699 25.632,34.541 25.954,34.423 26.423 M34.078 139.520 C 34.078 199.448,34.115 223.964,34.160 194.000 C 34.205 164.036,34.205 115.004,34.160 85.040 C 34.115 55.076,34.078 79.592,34.078 139.520 M218.906 127.066 C 218.161 129.548,217.609 131.635,217.678 131.705 C 217.747 131.774,218.413 129.799,219.157 127.317 C 219.901 124.834,220.453 122.747,220.385 122.678 C 220.316 122.609,219.651 124.584,218.906 127.066 M238.167 127.680 C 238.167 128.472,238.230 128.796,238.306 128.400 C 238.382 128.004,238.382 127.356,238.306 126.960 C 238.230 126.564,238.167 126.888,238.167 127.680 M216.989 133.469 C 216.773 134.191,216.655 134.841,216.727 134.913 C 216.799 134.985,217.035 134.453,217.251 133.731 C 217.467 133.009,217.585 132.359,217.513 132.287 C 217.441 132.215,217.205 132.747,216.989 133.469 M216.183 136.183 C 216.065 136.652,216.031 137.097,216.106 137.173 C 216.181 137.248,216.339 136.926,216.457 136.457 C 216.575 135.988,216.609 135.543,216.534 135.467 C 216.459 135.392,216.301 135.714,216.183 136.183 M215.223 139.383 C 215.105 139.852,215.071 140.297,215.146 140.373 C 215.221 140.448,215.379 140.126,215.497 139.657 C 215.615 139.188,215.649 138.743,215.574 138.667 C 215.499 138.592,215.341 138.914,215.223 139.383 M214.429 142.109 C 214.213 142.831,214.095 143.481,214.167 143.553 C 214.239 143.625,214.475 143.093,214.691 142.371 C 214.907 141.649,215.025 140.999,214.953 140.927 C 214.881 140.855,214.645 141.387,214.429 142.109 M213.469 145.309 C 213.253 146.031,213.135 146.681,213.207 146.753 C 213.279 146.825,213.515 146.293,213.731 145.571 C 213.947 144.849,214.065 144.199,213.993 144.127 C 213.921 144.055,213.685 144.587,213.469 145.309 M212.509 148.509 C 212.293 149.231,212.175 149.881,212.247 149.953 C 212.319 150.025,212.555 149.493,212.771 148.771 C 212.987 148.049,213.105 147.399,213.033 147.327 C 212.961 147.255,212.725 147.787,212.509 148.509 M211.705 151.216 C 211.523 151.941,211.368 152.035,210.626 151.869 L 209.760 151.675 210.560 152.146 C 211.666 152.798,211.733 152.773,211.962 151.629 C 212.211 150.387,211.998 150.046,211.705 151.216 M221.044 189.346 C 221.442 189.423,222.018 189.420,222.324 189.340 C 222.630 189.260,222.304 189.197,221.600 189.201 C 220.896 189.204,220.646 189.270,221.044 189.346 M142.410 223.120 C 147.833 229.679,148.239 230.089,148.653 229.419 C 148.774 229.223,148.658 229.121,148.383 229.179 C 148.087 229.241,146.300 227.361,143.761 224.320 C 141.484 221.592,139.013 218.712,138.270 217.920 C 137.528 217.128,139.391 219.468,142.410 223.120 M238.972 224.480 C 239.341 225.008,240.458 226.304,241.453 227.360 L 243.263 229.280 241.251 226.880 C 238.824 223.984,238.070 223.190,238.972 224.480 M244.999 231.520 C 246.023 232.752,246.901 233.820,246.951 233.893 C 247.000 233.967,247.101 233.966,247.175 233.892 C 247.249 233.818,246.370 232.750,245.223 231.519 L 243.137 229.280 244.999 231.520 M220.247 236.160 C 220.247 236.952,220.310 237.276,220.386 236.880 C 220.462 236.484,220.462 235.836,220.386 235.440 C 220.310 235.044,220.247 235.368,220.247 236.160 M220.241 246.240 C 220.244 246.944,220.310 247.194,220.386 246.796 C 220.463 246.398,220.460 245.822,220.380 245.516 C 220.300 245.210,220.237 245.536,220.241 246.240 M114.400 254.079 L 48.160 254.241 114.480 254.400 C 167.408 254.528,180.800 254.479,180.800 254.160 C 180.800 253.940,180.764 253.795,180.720 253.839 C 180.676 253.882,150.832 253.990,114.400 254.079 M254.840 255.980 C 255.206 257.026,255.561 257.825,255.629 257.758 C 255.697 257.690,255.520 256.953,255.236 256.120 C 254.952 255.287,254.720 254.560,254.720 254.504 C 254.720 254.448,281.612 254.365,314.480 254.320 L 374.240 254.238 314.207 254.159 L 254.174 254.080 254.840 255.980 M386.336 256.797 C 385.794 257.939,385.480 258.794,385.638 258.697 C 385.939 258.511,386.958 256.709,387.072 256.160 C 387.108 255.984,387.239 255.588,387.363 255.280 C 387.920 253.895,387.226 254.920,386.336 256.797 M35.387 255.680 C 35.788 257.143,37.164 259.488,38.349 260.731 C 38.993 261.406,39.219 261.589,38.851 261.139 C 38.092 260.210,37.235 258.805,36.010 256.480 C 35.547 255.600,35.266 255.240,35.387 255.680 M179.378 259.058 C 179.257 259.700,179.223 260.289,179.301 260.368 C 179.379 260.446,179.542 259.984,179.662 259.342 C 179.783 258.700,179.817 258.111,179.739 258.032 C 179.661 257.954,179.498 258.416,179.378 259.058 M384.517 259.989 C 383.799 261.084,383.870 261.368,384.640 260.480 C 385.223 259.808,385.468 259.200,385.157 259.200 C 385.089 259.200,384.801 259.555,384.517 259.989 M256.679 261.440 C 256.673 261.704,256.867 262.352,257.108 262.880 C 257.674 264.116,257.683 263.541,257.120 262.080 C 256.883 261.464,256.684 261.176,256.679 261.440 M221.201 262.880 C 221.204 263.584,221.270 263.834,221.346 263.436 C 221.423 263.038,221.420 262.462,221.340 262.156 C 221.260 261.850,221.197 262.176,221.201 262.880 M380.640 264.000 C 380.321 264.352,380.133 264.640,380.221 264.640 C 380.310 264.640,380.714 264.352,381.120 264.000 C 381.526 263.648,381.714 263.360,381.539 263.360 C 381.363 263.360,380.959 263.648,380.640 264.000 M255.952 266.000 C 255.011 267.100,254.497 267.799,254.810 267.553 C 255.490 267.019,258.048 264.000,257.821 264.000 C 257.734 264.000,256.893 264.900,255.952 266.000 M177.778 266.098 C 177.657 266.740,177.623 267.329,177.701 267.408 C 177.779 267.486,177.942 267.024,178.062 266.382 C 178.183 265.740,178.217 265.151,178.139 265.072 C 178.061 264.994,177.898 265.456,177.778 266.098 M78.185 268.400 C 91.531 268.446,113.275 268.446,126.505 268.400 C 139.735 268.354,128.816 268.316,102.240 268.316 C 75.664 268.316,64.839 268.354,78.185 268.400 M296.425 268.400 C 309.771 268.446,331.515 268.446,344.745 268.400 C 357.975 268.354,347.056 268.316,320.480 268.316 C 293.904 268.316,283.079 268.354,296.425 268.400 M233.388 272.640 C 233.388 273.960,233.444 274.500,233.513 273.840 C 233.582 273.180,233.582 272.100,233.513 271.440 C 233.444 270.780,233.388 271.320,233.388 272.640 M244.300 279.440 L 243.360 280.480 244.400 279.540 C 244.972 279.023,245.440 278.555,245.440 278.500 C 245.440 278.253,245.176 278.471,244.300 279.440 M242.060 282.000 L 241.120 283.040 242.160 282.100 C 242.732 281.583,243.200 281.115,243.200 281.060 C 243.200 280.813,242.936 281.031,242.060 282.000 M240.140 284.240 L 239.200 285.280 240.240 284.340 C 241.209 283.464,241.427 283.200,241.180 283.200 C 241.125 283.200,240.657 283.668,240.140 284.240 M234.352 294.400 C 234.352 295.896,234.407 296.508,234.474 295.760 C 234.542 295.012,234.542 293.788,234.474 293.040 C 234.407 292.292,234.352 292.904,234.352 294.400 M242.875 302.320 L 239.200 306.080 242.960 302.405 C 245.028 300.384,246.720 298.692,246.720 298.645 C 246.720 298.415,246.288 298.827,242.875 302.320 M237.841 301.920 C 237.844 302.624,237.910 302.874,237.986 302.476 C 238.063 302.078,238.060 301.502,237.980 301.196 C 237.900 300.890,237.837 301.216,237.841 301.920 M145.044 305.190 C 145.531 305.263,146.251 305.261,146.644 305.185 C 147.038 305.109,146.640 305.049,145.760 305.052 C 144.880 305.054,144.558 305.116,145.044 305.190 M276.244 305.190 C 276.731 305.263,277.451 305.261,277.844 305.185 C 278.238 305.109,277.840 305.049,276.960 305.052 C 276.080 305.054,275.758 305.116,276.244 305.190 M132.660 307.824 C 132.143 308.165,131.599 308.369,131.452 308.278 C 131.305 308.187,131.224 308.248,131.272 308.414 C 131.320 308.580,131.000 309.036,130.560 309.429 C 130.120 309.821,130.552 309.599,131.520 308.935 C 132.488 308.272,133.417 307.610,133.584 307.464 C 134.126 306.993,133.624 307.188,132.660 307.824 M127.040 312.226 L 126.240 313.053 127.280 312.345 C 128.301 311.650,128.556 311.341,128.080 311.379 C 127.948 311.390,127.480 311.771,127.040 312.226 M295.014 312.116 C 295.440 312.641,296.640 313.434,296.640 313.191 C 296.640 313.130,296.172 312.738,295.600 312.319 C 294.956 311.848,294.733 311.771,295.014 312.116 M235.345 313.360 L 234.080 314.720 235.440 313.455 C 236.705 312.279,236.947 312.000,236.705 312.000 C 236.653 312.000,236.041 312.612,235.345 313.360 M123.840 314.753 C 123.840 314.917,123.444 315.297,122.960 315.597 C 122.476 315.897,122.224 316.144,122.400 316.144 C 122.937 316.147,124.326 314.939,124.075 314.689 C 123.946 314.559,123.840 314.588,123.840 314.753 M231.132 317.920 C 231.134 318.800,231.196 319.122,231.270 318.636 C 231.343 318.149,231.341 317.429,231.265 317.036 C 231.189 316.642,231.129 317.040,231.132 317.920 M120.587 317.368 C 120.528 317.504,118.896 318.863,116.960 320.387 C 115.024 321.912,112.936 323.600,112.320 324.139 C 111.704 324.678,111.116 325.119,111.014 325.119 C 110.153 325.123,108.029 329.552,108.543 330.274 C 108.796 330.629,108.826 330.611,108.689 330.184 C 108.207 328.672,110.031 326.468,115.316 322.176 C 121.394 317.240,121.531 317.120,121.055 317.120 C 120.856 317.120,120.645 317.232,120.587 317.368 M302.080 317.898 C 302.080 317.974,302.548 318.354,303.120 318.743 L 304.160 319.450 303.294 318.605 C 302.481 317.811,302.080 317.578,302.080 317.898 M305.417 320.558 C 305.932 321.127,306.424 321.523,306.510 321.437 C 306.596 321.350,306.607 321.244,306.533 321.200 C 306.460 321.156,305.968 320.761,305.440 320.321 L 304.480 319.522 305.417 320.558 M156.550 324.720 C 155.994 325.516,151.984 331.797,150.778 333.760 C 150.333 334.484,150.334 334.514,150.784 334.080 C 151.058 333.816,152.189 332.160,153.298 330.400 C 154.406 328.640,155.796 326.444,156.387 325.520 C 157.502 323.773,157.623 323.182,156.550 324.720 M311.731 325.944 C 312.540 326.838,313.304 327.893,313.430 328.288 C 313.556 328.684,313.728 328.939,313.813 328.854 C 314.118 328.548,312.986 326.855,311.637 325.600 L 310.261 324.320 311.731 325.944 M221.385 330.156 C 218.979 333.785,218.800 334.080,218.995 334.080 C 219.267 334.080,223.119 328.293,222.956 328.129 C 222.881 328.054,222.174 328.966,221.385 330.156 " stroke="none" fill="#8d744c" fill-rule="evenodd"></path></g></svg>