<?xml version="1.0" standalone="no"?>
<!DOCTYPE svg PUBLIC "-//W3C//DTD SVG 20010904//EN"
 "http://www.w3.org/TR/2001/REC-SVG-20010904/DTD/svg10.dtd">
<svg version="1.0" xmlns="http://www.w3.org/2000/svg"
 width="1250.000000pt" height="1250.000000pt" viewBox="0 0 1250.000000 1250.000000"
 preserveAspectRatio="xMidYMid meet">
<metadata>
Created by potrace 1.16, written by Peter Selinger 2001-2019
</metadata>
<g transform="translate(0.000000,1250.000000) scale(0.100000,-0.100000)"
fill="#000000" stroke="none">
<path d="M1640 12168 c0 -5 -3 -7 -7 -6 -15 4 -99 -13 -148 -29 -43 -15 -108
-50 -193 -104 -12 -7 -20 -20 -17 -27 3 -7 1 -11 -3 -8 -11 7 -83 -68 -114
-119 -36 -58 -75 -161 -87 -230 -8 -42 -11 -1063 -11 -3510 0 -3725 -3 -3504
52 -3641 13 -32 28 -59 35 -59 6 0 15 -4 20 -9 5 -5 3 -6 -4 -2 -7 4 -13 2
-13 -4 0 -15 51 -82 58 -76 3 3 -1 14 -9 23 -13 16 -12 17 4 4 10 -8 16 -20
13 -28 -7 -17 29 -58 52 -58 9 -1 16 -6 15 -13 -3 -14 62 -64 127 -97 40 -20
115 -43 192 -60 15 -3 910 -6 1988 -8 l1960 -2 6 30 c3 17 26 117 50 224 24
106 44 197 44 202 0 5 -913 9 -2067 9 -1136 0 -2068 2 -2070 3 -1 2 -3 1614
-3 3583 l0 3579 5092 0 5093 0 -5095 -5 -5095 -5 5100 0 5100 0 0 -3585 0
-3585 -770 2 c-423 2 -1270 4 -1881 5 l-1110 3 51 -162 52 -162 -28 -27 c-43
-41 -35 -53 9 -13 l37 34 -34 -37 c-19 -21 -37 -36 -40 -33 -9 10 -39 -27 -34
-43 4 -16 120 -17 1796 -15 986 1 1812 5 1837 7 56 6 143 32 195 58 61 31 125
72 125 81 0 5 -6 5 -12 1 -7 -4 -4 2 6 14 21 25 36 31 16 7 -26 -32 6 -13 47
27 42 41 60 74 26 47 -16 -13 -17 -12 -5 3 8 9 19 15 25 12 10 -4 75 98 84
131 1 6 14 50 28 100 l25 89 0 3429 c0 2336 -3 3434 -10 3447 -9 16 -8 19 7
14 11 -4 14 -2 7 3 -6 4 -16 40 -23 80 -16 93 -109 288 -129 269 -2 -3 1 -13
9 -23 9 -11 10 -14 2 -9 -7 4 -18 16 -24 28 -8 15 -8 19 0 14 22 -14 10 11
-17 37 -37 35 -52 35 -21 0 l24 -28 -27 24 c-15 13 -25 28 -22 35 5 14 -61 60
-75 51 -6 -3 -8 0 -5 8 6 16 -54 48 -156 81 l-65 21 -3890 3 c-2139 1 -4386 3
-4993 5 -606 1 -1102 -1 -1102 -5z m10077 -5816 c-1 -983 -2 -178 -2 1788 0
1966 1 2771 2 1787 2 -983 2 -2591 0 -3575z m-8141 -1810 c-1133 -1 -2063 1
-2067 5 -5 5 922 6 2059 3 l2067 -5 -2059 -3z m584 -419 c-1444 -7 -2488 -7
-2483 0 2 4 685 6 1516 5 832 -2 1267 -4 967 -5z m7363 0 c5 -7 -1028 -7
-2473 0 -300 1 133 3 962 5 829 1 1509 -1 1511 -5z"/>
<path d="M6785 11169 c-407 -51 -820 -231 -1130 -491 -425 -356 -694 -843
-770 -1393 -20 -140 -22 -418 -6 -545 102 -765 554 -1394 1236 -1721 108 -52
300 -121 413 -149 36 -9 42 -14 42 -37 0 -38 36 -108 71 -138 l30 -25 -3 -110
c-2 -60 -3 -110 -2 -110 0 0 23 22 51 49 60 58 121 81 212 81 154 0 276 -116
288 -273 5 -59 -3 -86 -162 -567 l-167 -505 -5 -185 c-3 -116 1 -279 11 -435
27 -436 29 -505 17 -638 -7 -70 -21 -162 -31 -205 -19 -74 -121 -297 -181
-395 l-29 -47 0 -436 c0 -488 -4 -463 76 -533 80 -71 207 -106 349 -98 143 8
254 60 312 148 22 33 28 56 31 111 l4 69 -101 -50 c-55 -28 -106 -51 -112 -51
-7 0 -8 26 -4 83 15 174 49 296 108 385 32 47 32 48 20 102 -39 174 -35 355
11 455 21 46 21 53 8 85 -8 19 -28 87 -44 150 -24 92 -30 137 -30 225 -1 125
6 152 84 316 l50 106 -30 47 c-46 71 -66 160 -59 253 7 89 35 194 72 269 l25
51 0 814 0 814 50 27 c60 33 99 89 108 153 l7 48 115 37 c746 242 1314 869
1474 1628 38 178 49 320 43 530 -7 266 -51 485 -143 720 -290 745 -960 1271
-1754 1378 -116 15 -441 17 -555 3z m580 -339 c509 -88 944 -369 1234 -800
493 -733 399 -1718 -224 -2343 -547 -550 -1371 -705 -2078 -391 -566 251 -966
768 -1079 1394 -27 151 -29 437 -4 585 89 533 369 974 805 1267 268 179 555
277 916 312 81 8 323 -6 430 -24z"/>
<path d="M6408 9921 c-67 -7 -99 -30 -78 -56 11 -13 28 -15 109 -9 179 12 278
-25 335 -126 17 -30 49 -107 72 -170 22 -63 44 -122 48 -130 4 -10 -4 -21 -24
-32 -29 -16 -70 -72 -70 -94 0 -23 213 -100 427 -153 105 -27 130 -27 138 0 8
26 -2 84 -21 121 -8 16 -12 33 -9 38 10 17 205 160 248 182 96 50 216 20 360
-91 68 -52 91 -58 103 -26 9 22 -26 57 -113 115 -144 96 -258 117 -369 66 -33
-15 -110 -66 -172 -113 l-113 -86 -48 26 c-54 30 -156 57 -217 57 -23 0 -47 6
-53 14 -6 7 -27 58 -45 112 -62 180 -98 244 -169 295 -70 51 -208 75 -339 60z"/>
<path d="M6352 9638 c-28 -28 -14 -56 48 -90 68 -38 67 -32 45 -166 -11 -69
-13 -103 -5 -138 13 -55 56 -147 80 -169 15 -13 19 -12 44 14 l27 28 -24 36
c-46 68 -52 114 -33 252 10 68 15 132 12 142 -6 18 -145 103 -169 103 -7 0
-18 -5 -25 -12z"/>
<path d="M7598 9095 c-59 -123 -87 -158 -153 -193 -17 -8 -20 -18 -17 -51 2
-23 9 -41 16 -41 22 0 136 81 158 113 13 18 42 72 65 122 l43 90 68 -3 c75 -4
96 8 90 50 -4 28 -30 36 -131 37 l-78 1 -61 -125z"/>
<path d="M6358 8885 c-102 -21 -178 -57 -280 -132 -55 -40 -108 -73 -117 -73
-9 0 -54 5 -100 10 -87 11 -111 5 -111 -29 1 -38 17 -45 136 -56 l118 -11 97
72 c111 83 132 95 210 119 47 15 60 24 83 62 16 24 27 45 25 47 -2 1 -29 -3
-61 -9z"/>
<path d="M7440 8510 c0 -52 5 -66 33 -107 19 -27 46 -83 61 -125 56 -161 52
-157 170 -218 l106 -55 22 23 c32 32 18 48 -85 102 l-86 45 -32 90 c-18 50
-41 108 -52 130 -18 37 -122 175 -132 175 -3 0 -5 -27 -5 -60z"/>
<path d="M6115 8321 c-73 -43 -104 -80 -160 -194 l-50 -102 -72 4 c-70 3 -73
2 -85 -23 -19 -42 3 -55 109 -62 l91 -7 24 39 c13 21 39 73 58 114 36 78 76
130 122 157 21 13 27 25 30 60 2 24 -1 43 -7 43 -5 0 -32 -13 -60 -29z"/>
<path d="M7316 7934 c-26 -33 -27 -39 -18 -77 8 -32 7 -73 -7 -171 l-18 -130
23 -20 c12 -12 52 -37 88 -56 l66 -35 20 21 c29 28 17 50 -46 86 -30 16 -56
33 -58 37 -3 4 3 57 12 119 17 116 14 150 -20 232 l-13 30 -29 -36z"/>
<path d="M4170 6458 c-87 -45 -122 -94 -124 -174 0 -33 2 -84 6 -114 l7 -55
-42 -30 c-23 -17 -51 -45 -62 -63 -22 -36 -19 -36 -150 -12 -89 15 -141 3
-190 -46 -60 -60 -102 -164 -66 -164 5 0 21 24 35 54 29 59 82 112 122 122 14
4 67 -1 119 -11 86 -16 93 -20 99 -44 10 -47 21 -57 49 -42 36 19 217 191 217
205 0 15 -42 36 -70 36 -22 0 -34 54 -35 157 0 55 3 65 30 93 17 18 59 46 94
64 36 17 65 36 65 41 2 22 -44 14 -104 -17z"/>
<path d="M4262 6303 l-30 -46 44 -66 c32 -48 44 -76 44 -103 0 -27 6 -40 19
-48 30 -15 31 -14 31 43 0 46 -6 62 -41 115 l-41 61 22 31 c23 32 21 60 -4 60
-7 0 -27 -21 -44 -47z"/>
<path d="M4780 5990 c-42 -26 -49 -28 -95 -19 -61 12 -160 13 -181 1 -23 -13
30 -46 61 -38 13 3 57 -1 99 -10 l76 -15 60 37 c64 39 67 43 48 62 -15 15 -15
16 -68 -18z"/>
<path d="M3703 5793 c-44 -25 -55 -49 -28 -59 8 -3 30 3 48 13 l33 20 40 -34
c51 -45 93 -63 149 -63 49 0 50 1 35 31 -8 14 -21 19 -49 19 -31 0 -51 10
-102 50 -35 27 -68 49 -74 49 -5 -1 -29 -12 -52 -26z"/>
<path d="M4016 5510 c-13 -47 -16 -79 -10 -140 6 -78 6 -78 -26 -119 -32 -39
-35 -71 -7 -71 7 0 30 23 51 51 l38 52 -6 86 c-5 54 -3 97 3 114 9 22 7 35 -4
58 -9 16 -17 29 -19 29 -2 0 -11 -27 -20 -60z"/>
<path d="M4220 5268 c1 -45 20 -95 57 -149 31 -45 31 -45 12 -69 -24 -32 -24
-60 0 -60 16 0 71 67 71 87 0 5 -18 35 -40 68 -22 33 -43 77 -46 98 -6 32 -27
57 -48 57 -3 0 -6 -15 -6 -32z"/>
<path d="M4486 2981 c-4 -5 -23 -10 -44 -9 -60 0 -175 -28 -233 -57 -71 -36
-110 -65 -104 -75 3 -5 0 -12 -6 -16 -8 -4 -9 -3 -5 4 4 7 4 12 1 12 -11 0
-104 -74 -105 -83 0 -5 5 -5 12 -1 7 4 8 3 4 -5 -4 -6 -12 -9 -17 -5 -5 3 -41
-20 -79 -51 -72 -57 -92 -81 -42 -50 26 17 26 17 10 0 -9 -10 -25 -18 -35 -19
-25 -1 -113 -69 -108 -83 2 -6 -4 -17 -13 -25 -15 -12 -16 -11 -3 5 8 10 9 17
3 17 -12 0 -27 -19 -27 -34 0 -5 -35 -38 -77 -74 -43 -35 -78 -61 -78 -59 0 3
34 34 76 67 41 34 73 64 70 67 -6 6 -175 -129 -176 -140 0 -5 6 -5 13 -1 6 4
-11 -17 -40 -47 -29 -30 -59 -70 -67 -89 -8 -19 -15 -28 -16 -20 0 22 33 72
75 113 41 40 34 52 -7 14 -49 -45 -80 -104 -80 -148 1 -47 12 -64 61 -88 74
-38 127 -41 705 -41 l564 0 96 151 c53 84 95 152 94 154 -2 1 -24 13 -49 28
-66 37 -132 115 -152 177 -13 41 -17 91 -17 231 0 124 -4 180 -12 185 -7 5 -8
2 -3 -7 6 -11 5 -12 -6 -1 -7 6 -26 12 -42 12 -19 0 -28 -4 -24 -12 5 -15 -81
-12 -100 4 -7 5 -13 5 -17 -1z"/>
<path d="M8525 2984 c-6 -2 -9 -64 -7 -164 3 -184 -9 -254 -58 -325 -35 -52
-78 -86 -140 -114 -43 -20 -65 -21 -489 -21 l-445 0 -50 -34 c-80 -54 -165
-79 -279 -81 l-98 -1 -60 -90 c-32 -49 -59 -91 -59 -94 0 -3 638 -3 1417 0
1332 5 1421 6 1463 23 60 24 100 63 100 99 0 33 -37 111 -49 104 -5 -3 -17 4
-27 17 l-19 22 23 -19 c12 -11 22 -15 22 -9 0 5 -10 18 -23 29 -92 78 -127
104 -139 102 -7 -2 -12 2 -11 9 2 6 -26 34 -61 62 -64 51 -84 62 -70 39 5 -9
2 -9 -9 1 -18 15 -23 26 -7 16 6 -3 10 -3 9 2 0 9 -104 93 -115 93 -3 0 0 -8
7 -17 13 -16 12 -17 -3 -4 -10 7 -16 17 -13 21 7 12 -82 83 -94 76 -5 -4 -13
-1 -17 5 -4 8 -3 9 4 5 7 -4 12 -4 11 1 -1 16 -109 94 -121 87 -7 -4 -8 -3 -4
4 9 15 -69 66 -85 56 -7 -4 -9 -3 -5 4 8 14 -30 35 -50 28 -8 -3 -12 -1 -9 4
10 16 -139 53 -207 51 -21 0 -38 4 -38 9 0 6 -5 10 -11 10 -6 0 -9 -6 -6 -12
5 -15 -82 -12 -97 3 -10 9 -62 11 -81 3z"/>
</g>
</svg>
