<?xml version="1.0" standalone="no"?>
<!DOCTYPE svg PUBLIC "-//W3C//DTD SVG 20010904//EN"
 "http://www.w3.org/TR/2001/REC-SVG-20010904/DTD/svg10.dtd">
<svg version="1.0" xmlns="http://www.w3.org/2000/svg"
 width="1250.000000pt" height="1250.000000pt" viewBox="0 0 1250.000000 1250.000000"
 preserveAspectRatio="xMidYMid meet">

<g transform="translate(0.000000,1250.000000) scale(0.100000,-0.100000)"
fill="#000000" stroke="none">
<path d="M1575 12155 c-115 -21 -317 -127 -298 -157 3 -6 1 -8 -5 -5 -5 4 -31
-16 -56 -44 -43 -48 -60 -79 -34 -63 7 4 8 3 4 -5 -4 -6 -12 -9 -17 -5 -14 8
-77 -133 -94 -211 -22 -103 -22 -6944 -1 -7046 18 -84 58 -184 73 -184 6 0 15
-4 20 -9 5 -5 3 -6 -4 -2 -31 18 -2 -36 50 -91 17 -18 35 -29 40 -26 6 3 7 2
4 -4 -9 -14 48 -65 118 -108 92 -55 282 -104 299 -76 5 8 418 10 1519 9 l1512
-3 -1515 -5 -1515 -5 1510 -3 c831 -1 1702 -3 1937 -5 l428 -2 6 30 c3 17 26
117 50 224 24 106 44 197 44 202 0 5 -913 9 -2067 9 -1136 0 -2068 2 -2070 3
-1 2 -3 1614 -3 3583 l0 3579 5092 0 5093 0 -5095 -5 -5095 -5 5100 0 5100 0
0 -3585 0 -3585 -770 2 c-423 2 -1270 4 -1881 5 l-1110 3 51 -162 52 -162 -28
-27 c-43 -41 -35 -53 8 -13 l38 34 -34 -37 c-19 -21 -37 -36 -40 -33 -9 10
-39 -27 -34 -43 4 -16 28 -17 281 -15 152 2 954 4 1782 5 l1505 3 -1510 5
-1510 5 1503 3 c1139 1 1507 -1 1521 -10 41 -25 250 37 342 103 16 11 27 24
24 28 -2 5 5 17 18 27 18 16 19 16 8 1 -25 -32 5 -17 42 21 35 36 49 61 27 47
-16 -10 -11 1 7 16 15 12 16 12 8 -1 -8 -13 -7 -13 8 -1 20 16 23 36 5 25 -8
-4 -10 -3 -5 2 5 5 14 9 20 9 17 0 71 114 93 193 18 65 19 195 22 3510 2 2513
-1 3448 -9 3464 -6 11 -7 18 -1 14 5 -3 4 27 -4 72 -16 85 -88 245 -126 277
l-22 20 17 -30 18 -30 -20 24 c-12 12 -18 27 -15 33 7 11 -34 58 -49 58 -6 0
0 -12 14 -27 l24 -28 -27 24 c-15 13 -25 28 -22 35 6 15 -62 60 -77 50 -8 -4
-9 -3 -5 4 10 16 -44 47 -139 80 l-80 27 -4990 2 c-4023 1 -5004 -1 -5060 -12z
m10220 -73 c-3 -3 -11 0 -18 7 -9 10 -8 11 6 5 10 -3 15 -9 12 -12z m-10565
-146 c0 -2 -8 -10 -17 -17 -16 -13 -17 -12 -4 4 13 16 21 21 21 13z m10828
-111 c-3 -3 -9 2 -12 12 -6 14 -5 15 5 6 7 -7 10 -15 7 -18z m-341 -5473 c-1
-983 -2 -178 -2 1788 0 1966 1 2771 2 1787 2 -983 2 -2591 0 -3575z m-8141
-1810 c-1133 -1 -2063 1 -2067 5 -5 5 922 6 2059 3 l2067 -5 -2059 -3z m8490
-81 c-15 -28 -28 -51 -31 -51 -3 0 7 25 22 55 15 30 29 53 31 51 2 -2 -8 -27
-22 -55z m-10918 -6 c-3 -3 -9 2 -12 12 -6 14 -5 15 5 6 7 -7 10 -15 7 -18z
m71 -109 c-3 -3 -11 5 -18 17 -13 21 -12 21 5 5 10 -10 16 -20 13 -22z m102
-93 c13 -16 12 -17 -3 -4 -17 13 -22 21 -14 21 2 0 10 -8 17 -17z m6662 -118
c-3 -9 -8 -14 -10 -11 -3 3 -2 9 2 15 9 16 15 13 8 -4z"/>
<path d="M6785 11169 c-407 -51 -820 -231 -1130 -491 -425 -356 -694 -843
-770 -1393 -20 -140 -22 -418 -6 -545 102 -765 554 -1394 1236 -1721 108 -52
300 -121 413 -149 36 -9 42 -14 42 -37 0 -38 36 -108 71 -138 l30 -25 -3 -110
c-2 -60 -3 -110 -2 -110 0 0 23 22 51 49 60 58 121 81 212 81 154 0 276 -116
288 -273 5 -59 -3 -86 -162 -567 l-167 -505 -5 -185 c-3 -116 1 -279 11 -435
27 -436 29 -505 17 -638 -7 -70 -21 -162 -31 -205 -19 -74 -121 -297 -181
-395 l-29 -47 0 -436 c0 -488 -4 -463 76 -533 80 -71 207 -106 349 -98 143 8
254 60 312 148 22 33 28 56 31 111 l4 69 -101 -50 c-55 -28 -106 -51 -112 -51
-7 0 -8 26 -4 83 15 174 49 296 108 385 32 47 32 48 20 102 -39 174 -35 355
11 455 21 46 21 53 8 85 -8 19 -28 87 -44 150 -24 92 -30 137 -30 225 -1 125
6 152 84 316 l50 106 -30 47 c-46 71 -66 160 -59 253 7 89 35 194 72 269 l25
51 0 814 0 814 50 27 c60 33 99 89 108 153 l7 48 115 37 c746 242 1314 869
1474 1628 38 178 49 320 43 530 -7 266 -51 485 -143 720 -290 745 -960 1271
-1754 1378 -116 15 -441 17 -555 3z m580 -339 c509 -88 944 -369 1234 -800
493 -733 399 -1718 -224 -2343 -547 -550 -1371 -705 -2078 -391 -566 251 -966
768 -1079 1394 -27 151 -29 437 -4 585 89 533 369 974 805 1267 268 179 555
277 916 312 81 8 323 -6 430 -24z"/>
<path d="M6408 9921 c-67 -7 -99 -30 -78 -56 11 -13 28 -15 109 -9 179 12 278
-25 335 -126 17 -30 49 -107 72 -170 22 -63 44 -122 48 -130 4 -10 -4 -21 -24
-32 -29 -16 -70 -72 -70 -94 0 -23 213 -100 427 -153 105 -27 130 -27 138 0 8
26 -2 84 -21 121 -8 16 -12 33 -9 38 10 17 205 160 248 182 96 50 216 20 360
-91 68 -52 91 -58 103 -26 9 22 -26 57 -113 115 -144 96 -258 117 -369 66 -33
-15 -110 -66 -172 -113 l-113 -86 -48 26 c-54 30 -156 57 -217 57 -23 0 -47 6
-53 14 -6 7 -27 58 -45 112 -62 180 -98 244 -169 295 -70 51 -208 75 -339 60z"/>
<path d="M6352 9638 c-28 -28 -14 -56 48 -90 68 -38 67 -32 45 -166 -11 -69
-13 -103 -5 -138 13 -55 56 -147 80 -169 15 -13 19 -12 44 14 l27 28 -24 36
c-46 68 -52 114 -33 252 10 68 15 132 12 142 -6 18 -145 103 -169 103 -7 0
-18 -5 -25 -12z"/>
<path d="M7598 9095 c-59 -123 -87 -158 -153 -193 -17 -8 -20 -18 -17 -51 2
-23 9 -41 16 -41 22 0 136 81 158 113 13 18 42 72 65 122 l43 90 68 -3 c75 -4
96 8 90 50 -4 28 -30 36 -131 37 l-78 1 -61 -125z"/>
<path d="M6358 8885 c-102 -21 -178 -57 -280 -132 -55 -40 -108 -73 -117 -73
-9 0 -54 5 -100 10 -87 11 -111 5 -111 -29 1 -38 17 -45 136 -56 l118 -11 97
72 c111 83 132 95 210 119 47 15 60 24 83 62 16 24 27 45 25 47 -2 1 -29 -3
-61 -9z"/>
<path d="M6911 8754 c0 -11 3 -14 6 -6 3 7 2 16 -1 19 -3 4 -6 -2 -5 -13z"/>
<path d="M6840 8532 c-30 -92 -53 -173 -52 -179 2 -7 -2 -13 -7 -13 -6 0 -8
-7 -5 -15 4 -8 1 -15 -5 -15 -6 0 -8 -7 -4 -17 4 -11 3 -14 -6 -9 -9 6 -10 0
-6 -21 5 -22 4 -25 -4 -13 -9 12 -10 8 -5 -15 4 -23 3 -27 -5 -15 -9 12 -10 8
-5 -15 4 -24 3 -27 -6 -15 -9 12 -10 11 -5 -6 3 -13 -19 -104 -55 -224 -33
-111 -60 -203 -60 -206 0 -13 -29 -1 -32 14 -3 15 -4 15 -10 1 -4 -11 1 -20
18 -28 19 -8 26 -8 29 2 19 50 285 950 282 953 -2 2 -28 -72 -57 -164z"/>
<path d="M7440 8510 c0 -52 5 -66 33 -107 19 -27 46 -83 61 -125 56 -161 52
-157 170 -218 l106 -55 22 23 c32 32 18 48 -85 102 l-86 45 -32 90 c-18 50
-41 108 -52 130 -18 37 -122 175 -132 175 -3 0 -5 -27 -5 -60z"/>
<path d="M6115 8321 c-73 -43 -104 -80 -160 -194 l-50 -102 -72 4 c-70 3 -73
2 -85 -23 -19 -42 3 -55 109 -62 l91 -7 24 39 c13 21 39 73 58 114 36 78 76
130 122 157 21 13 27 25 30 60 2 24 -1 43 -7 43 -5 0 -32 -13 -60 -29z"/>
<path d="M7316 7934 c-26 -33 -27 -39 -18 -77 8 -32 7 -73 -7 -171 l-18 -130
23 -20 c12 -12 52 -37 88 -56 l66 -35 20 21 c29 28 17 50 -46 86 -30 16 -56
33 -58 37 -3 4 3 57 12 119 17 116 14 150 -20 232 l-13 30 -29 -36z"/>
<path d="M4170 6458 c-87 -45 -122 -94 -124 -174 0 -33 2 -84 6 -114 l7 -55
-42 -30 c-23 -17 -51 -45 -62 -63 -22 -36 -19 -36 -150 -12 -89 15 -141 3
-190 -46 -60 -60 -102 -164 -66 -164 5 0 21 24 35 54 29 59 82 112 122 122 14
4 67 -1 119 -11 86 -16 93 -20 99 -44 10 -47 21 -57 49 -42 36 19 217 191 217
205 0 15 -42 36 -70 36 -22 0 -34 54 -35 157 0 55 3 65 30 93 17 18 59 46 94
64 36 17 65 36 65 41 2 22 -44 14 -104 -17z"/>
<path d="M4262 6303 l-30 -46 44 -66 c32 -48 44 -76 44 -103 0 -27 6 -40 19
-48 30 -15 31 -14 31 43 0 46 -6 62 -41 115 l-41 61 22 31 c23 32 21 60 -4 60
-7 0 -27 -21 -44 -47z"/>
<path d="M4780 5990 c-42 -26 -49 -28 -95 -19 -61 12 -160 13 -181 1 -23 -13
30 -46 61 -38 13 3 57 -1 99 -10 l76 -15 60 37 c64 39 67 43 48 62 -15 15 -15
16 -68 -18z"/>
<path d="M3703 5793 c-44 -25 -55 -49 -28 -59 8 -3 30 3 48 13 l33 20 40 -34
c51 -45 93 -63 149 -63 49 0 50 1 35 31 -8 14 -21 19 -49 19 -31 0 -51 10
-102 50 -35 27 -68 49 -74 49 -5 -1 -29 -12 -52 -26z"/>
<path d="M4281 5728 c29 -35 117 -141 197 -235 79 -95 148 -173 152 -173 5 0
12 5 15 11 4 6 0 9 -10 7 -10 -2 -20 3 -23 11 -3 9 0 11 9 6 8 -4 -13 20 -46
52 -33 33 -123 132 -199 221 -76 89 -141 162 -143 162 -3 0 19 -28 48 -62z
m309 -343 c13 -14 21 -25 18 -25 -2 0 -15 11 -28 25 -13 14 -21 25 -18 25 2 0
15 -11 28 -25z"/>
<path d="M4747 5729 c3 -11 18 -26 32 -32 14 -6 51 -31 82 -54 30 -24 61 -43
67 -43 21 0 92 50 92 65 0 25 -20 27 -55 5 l-35 -22 -50 42 c-67 56 -143 79
-133 39z"/>
<path d="M4016 5510 c-13 -47 -16 -79 -10 -140 6 -78 6 -78 -26 -119 -32 -39
-35 -71 -7 -71 7 0 30 23 51 51 l38 52 -6 86 c-5 54 -3 97 3 114 9 22 7 35 -4
58 -9 16 -17 29 -19 29 -2 0 -11 -27 -20 -60z"/>
<path d="M4220 5268 c1 -45 20 -95 57 -149 31 -45 31 -45 12 -69 -24 -32 -24
-60 0 -60 16 0 71 67 71 87 0 5 -18 35 -40 68 -22 33 -43 77 -46 98 -6 32 -27
57 -48 57 -3 0 -6 -15 -6 -32z"/>
<path d="M4324 2955 c-88 -19 -232 -95 -219 -115 3 -5 0 -12 -6 -16 -8 -4 -9
-3 -5 4 13 21 -5 13 -50 -24 -24 -20 -42 -41 -41 -47 1 -7 -4 -11 -11 -9 -7 1
-44 -23 -82 -54 -73 -59 -90 -78 -42 -50 l27 17 -24 -20 c-12 -12 -27 -18 -32
-15 -11 6 -110 -76 -104 -86 3 -4 -3 -14 -13 -21 -15 -13 -16 -12 -3 4 20 25
-2 21 -25 -5 -10 -12 -13 -18 -5 -13 9 5 12 4 7 -3 -9 -14 -156 -135 -156
-128 0 3 32 31 70 62 39 31 68 59 66 61 -5 6 -151 -111 -162 -129 -5 -7 -2 -8
7 -3 8 4 -9 -16 -38 -46 -29 -30 -59 -70 -67 -89 -8 -19 -15 -28 -16 -20 0 22
33 72 75 113 21 21 33 37 27 37 -20 0 -101 -101 -108 -134 -11 -59 -1 -89 35
-113 69 -47 75 -47 697 -51 l591 -3 97 152 c53 83 95 152 94 154 -2 1 -24 13
-49 28 -66 37 -132 115 -152 177 -13 41 -17 91 -17 226 l0 173 -127 0 c-78 -1
-121 -4 -112 -10 9 -5 10 -9 2 -9 -6 0 -15 5 -18 10 -8 13 -35 12 -111 -5z
m249 -2 c-13 -2 -33 -2 -45 0 -13 2 -3 4 22 4 25 0 35 -2 23 -4z m-793 -387
c0 -2 -8 -10 -17 -17 -16 -13 -17 -12 -4 4 13 16 21 21 21 13z m1071 -273 c-5
-10 -17 -27 -26 -38 -16 -19 -17 -19 -3 5 26 46 29 50 34 50 3 0 0 -8 -5 -17z
m-70 -110 c-5 -10 -17 -27 -26 -38 -16 -19 -17 -19 -3 5 26 46 29 50 34 50 3
0 0 -8 -5 -17z"/>
<path d="M8520 2812 c0 -180 -13 -249 -60 -318 -35 -51 -78 -85 -140 -113 -43
-20 -65 -21 -489 -21 l-445 0 -50 -34 c-80 -54 -165 -79 -279 -81 l-98 -1 -60
-90 c-32 -49 -59 -91 -59 -94 0 -3 638 -3 1417 0 1332 5 1421 6 1463 23 137
54 132 140 -15 274 -42 37 -83 68 -93 68 -9 1 -16 6 -15 12 1 5 -27 33 -62 62
-65 51 -82 61 -69 39 5 -9 3 -9 -9 1 -9 7 -15 17 -12 21 2 4 -18 26 -45 49
-51 43 -72 53 -49 24 13 -16 12 -17 -4 -4 -9 8 -15 16 -12 19 7 7 -25 42 -38
42 -5 0 -3 -8 4 -17 13 -16 12 -17 -3 -4 -10 7 -16 17 -13 21 7 11 -30 41 -46
38 -8 -2 -13 2 -12 8 3 17 -95 96 -109 88 -7 -4 -8 -3 -4 4 9 15 -69 66 -85
56 -7 -4 -9 -3 -5 4 8 14 -30 35 -50 28 -8 -3 -12 -2 -9 4 14 23 -101 42 -272
46 l-173 5 0 -159z m153 141 c-13 -2 -33 -2 -45 0 -13 2 -3 4 22 4 25 0 35 -2
23 -4z m528 -200 c13 -16 12 -17 -3 -4 -10 7 -18 15 -18 17 0 8 8 3 21 -13z
m220 -180 c13 -16 12 -17 -3 -4 -10 7 -18 15 -18 17 0 8 8 3 21 -13z m334
-273 c10 -11 16 -20 13 -20 -3 0 -13 9 -23 20 -10 11 -16 20 -13 20 3 0 13 -9
23 -20z m45 -74 c0 -12 -5 -7 -19 24 -11 24 -11 24 3 6 9 -11 16 -24 16 -30z"/>
<path d="M7478 2604 c-39 -21 -35 -28 5 -8 37 19 44 24 31 24 -5 -1 -21 -8
-36 -16z"/>
<path d="M3390 1571 c0 -6 4 -13 10 -16 6 -3 7 1 4 9 -7 18 -14 21 -14 7z"/>
<path d="M3410 1536 c0 -3 9 -10 20 -16 11 -6 20 -8 20 -6 0 3 -9 10 -20 16
-11 6 -20 8 -20 6z"/>
<path d="M3588 1473 c7 -3 16 -2 19 1 4 3 -2 6 -13 5 -11 0 -14 -3 -6 -6z"/>
</g>
</svg>
